<?xml version="1.0" standalone="no"?>
<!DOCTYPE svg PUBLIC "-//W3C//DTD SVG 20010904//EN"
 "http://www.w3.org/TR/2001/REC-SVG-20010904/DTD/svg10.dtd">
<svg version="1.0" xmlns="http://www.w3.org/2000/svg"
 width="864.000000pt" height="864.000000pt" viewBox="0 0 864.000000 864.000000"
 preserveAspectRatio="xMidYMid meet">
<metadata>
Created by potrace 1.14, written by Peter Selinger 2001-2017
</metadata>
<g transform="translate(0.000000,864.000000) scale(0.100000,-0.100000)"
fill="#000000" stroke="none">
<path d="M3845 8622 c-46 -17 -101 -56 -130 -91 -26 -30 -85 -141 -85 -158 0
-9 -14 -7 -52 8 -75 30 -168 60 -203 66 -16 2 -49 8 -72 13 -57 10 -167 5
-223 -10 -163 -44 -296 -191 -394 -435 -16 -39 -29 -74 -31 -80 -1 -5 -5 -17
-8 -25 -9 -24 -108 -394 -122 -460 -2 -8 -4 -15 -5 -15 -1 0 -3 -8 -5 -17 -4
-23 -56 -181 -64 -193 -3 -5 -6 -14 -7 -20 -3 -13 -110 -278 -135 -332 -10
-24 -19 -45 -19 -47 0 -2 -8 -21 -17 -42 -9 -22 -17 -41 -18 -44 -1 -3 -10
-23 -20 -45 -10 -22 -18 -43 -17 -47 1 -5 -2 -8 -6 -8 -4 0 -8 -10 -9 -21 -1
-12 -9 -29 -17 -38 -9 -10 -16 -23 -16 -29 0 -6 -18 -50 -40 -97 -22 -47 -40
-87 -40 -89 0 -5 -69 -155 -77 -168 -2 -5 -2 -8 1 -8 3 0 31 35 62 78 32 42
61 79 66 80 4 2 8 9 8 16 0 6 8 19 18 28 9 9 44 52 76 97 33 45 64 81 69 81 6
0 6 -5 0 -12 -5 -7 -17 -33 -26 -58 -9 -25 -22 -58 -28 -75 -7 -16 -13 -34
-15 -40 -1 -5 -14 -46 -29 -90 -29 -87 -41 -155 -27 -155 15 0 47 36 97 111
28 40 55 79 60 85 6 6 30 45 55 87 46 79 67 98 55 50 -4 -16 -9 -35 -11 -43
-2 -8 -13 -49 -24 -90 -71 -253 -86 -357 -40 -287 27 41 100 190 100 203 0 8
4 14 8 14 9 0 38 70 34 82 -1 4 2 8 8 8 5 0 10 4 10 10 0 12 49 120 55 120 2
0 2 -10 -1 -22 -7 -37 -16 -166 -18 -268 -1 -79 2 -95 15 -98 13 -2 32 23 38
53 1 6 8 17 15 25 7 8 16 24 19 35 15 52 36 100 45 103 6 2 16 -7 23 -20 6
-13 43 -65 82 -116 38 -51 66 -96 63 -99 -3 -4 -6 -2 -6 3 0 5 -11 11 -25 12
-35 3 -42 -34 -16 -86 12 -23 17 -43 13 -46 -4 -2 -38 -16 -76 -30 -295 -111
-380 -231 -391 -551 -6 -171 31 -295 97 -325 40 -17 183 -17 228 0 3 1 8 2 12
1 4 0 63 17 131 39 134 43 140 47 203 147 21 35 41 63 45 63 3 0 2 -26 -2 -57
-3 -32 -4 -61 -2 -65 2 -5 -1 -8 -7 -8 -6 0 -9 -4 -5 -9 3 -6 1 -29 -5 -53 -6
-24 -13 -52 -15 -63 -27 -116 -134 -275 -186 -275 -9 0 -45 -14 -78 -31 -153
-78 -253 -282 -265 -540 -3 -55 -8 -104 -11 -109 -3 -6 -3 -10 2 -10 4 0 8
-35 8 -78 0 -65 13 -185 29 -282 3 -14 10 -52 15 -85 6 -33 15 -73 19 -90 21
-72 -18 -324 -76 -485 -3 -8 -6 -17 -7 -20 -1 -3 -5 -14 -9 -25 -4 -11 -12
-33 -18 -50 -17 -48 -64 -157 -111 -255 -25 -52 -111 -207 -182 -329 -43 -74
-131 -191 -144 -192 -48 -3 -86 -7 -86 -8 0 -1 -20 -4 -45 -6 -25 -2 -56 -7
-70 -9 -14 -3 -50 -10 -80 -16 -137 -27 -255 -57 -370 -97 -69 -24 -129 -45
-135 -46 -5 -2 -36 -16 -69 -30 -32 -15 -61 -27 -63 -27 -3 0 -17 -9 -33 -20
-15 -11 -29 -17 -32 -14 -3 2 -11 -2 -18 -11 -7 -8 -16 -15 -20 -15 -12 0
-134 -83 -184 -125 -30 -25 -42 -42 -41 -58 4 -35 24 -100 39 -126 12 -22 11
-26 -21 -54 -32 -28 -42 -31 -106 -32 -69 -2 -147 -26 -147 -47 0 -4 -6 -8
-13 -8 -31 0 -108 -110 -135 -192 -21 -63 -30 -198 -13 -198 18 0 12 -18 -22
-67 -43 -64 -55 -83 -70 -113 -7 -14 -23 -45 -37 -70 -13 -25 -25 -47 -25 -50
-1 -3 -13 -31 -28 -63 -15 -32 -27 -63 -27 -71 0 -7 -3 -16 -7 -20 -4 -3 -8
-12 -9 -19 -2 -7 -6 -21 -9 -33 -10 -31 25 -69 56 -61 21 5 31 25 68 124 52
142 121 293 132 293 5 0 9 6 9 13 0 8 9 22 19 31 19 17 21 16 50 -36 17 -29
31 -58 31 -64 0 -6 9 -33 19 -60 21 -53 48 -144 55 -184 2 -14 9 -47 15 -75 6
-27 13 -68 16 -89 3 -21 8 -48 10 -60 3 -12 7 -48 10 -81 9 -123 17 -180 27
-186 5 -3 32 -4 61 -3 29 2 111 6 182 8 246 10 467 28 520 43 29 8 55 33 55
53 0 24 -35 45 -116 70 -119 38 -189 62 -200 71 -6 5 -14 6 -17 2 -4 -3 -7 -3
-7 2 0 4 7 13 16 20 14 10 10 15 -32 40 -27 16 -51 31 -54 35 -9 13 -67 39
-73 34 -12 -12 -33 50 -63 191 -3 11 -7 79 -10 150 l-6 130 39 51 c21 28 45
58 53 67 8 9 26 31 40 48 14 17 37 44 52 60 26 29 27 29 40 10 15 -21 78 -39
162 -46 28 -2 51 -4 51 -5 0 -4 185 -12 295 -12 184 -1 379 15 505 42 22 5 56
12 75 15 19 3 60 13 90 21 30 8 65 17 76 19 12 3 58 18 103 34 88 31 137 67
262 188 42 41 76 68 77 61 0 -7 3 -24 6 -38 4 -14 9 -50 12 -80 9 -95 12 -114
19 -160 4 -25 9 -52 10 -60 3 -31 29 -126 41 -155 7 -17 33 -59 59 -93 46 -63
67 -103 102 -197 16 -40 24 -50 43 -50 13 0 25 -6 28 -14 3 -8 0 -11 -6 -7 -6
3 -14 2 -17 -4 -5 -9 -126 -71 -145 -76 -3 0 -18 -6 -35 -13 -16 -7 -37 -14
-45 -17 -8 -2 -33 -8 -55 -14 -22 -6 -49 -13 -60 -15 -11 -2 -31 -6 -44 -9
-21 -5 -95 -14 -161 -21 -77 -8 -146 -18 -152 -22 -4 -2 -20 -6 -36 -7 -15 -2
-49 -14 -75 -26 -52 -24 -67 -55 -49 -95 14 -31 95 -87 129 -90 43 -4 156 -17
173 -20 8 -2 51 -6 95 -9 44 -4 103 -9 130 -12 78 -10 395 -12 432 -4 28 7
245 165 264 193 7 9 35 -58 60 -141 7 -23 18 -47 24 -52 7 -6 41 -12 76 -15
35 -2 99 -7 142 -11 68 -5 76 -4 71 10 -3 9 -11 16 -16 16 -5 0 -8 6 -5 13 2
6 0 22 -4 34 -5 13 -4 34 1 49 10 26 47 63 64 64 17 0 90 53 123 89 19 20 36
50 39 70 3 20 17 55 30 78 47 82 42 93 -119 254 -203 204 -214 221 -197 295 5
22 12 64 16 94 3 30 8 58 11 63 2 4 6 26 9 50 2 23 6 60 10 82 3 22 7 51 8 65
5 36 16 102 21 130 3 13 7 40 10 60 3 20 8 47 10 60 3 14 8 38 11 55 3 16 7
31 9 34 3 2 47 -38 98 -90 98 -98 123 -122 197 -179 25 -19 47 -38 48 -42 2
-5 9 -8 15 -8 7 0 28 -14 47 -30 19 -16 39 -30 43 -30 5 0 21 -8 35 -19 59
-41 322 -163 382 -176 8 -2 42 -13 75 -24 67 -22 158 -45 287 -71 89 -18 214
-18 233 1 14 14 23 11 41 -16 16 -25 16 -28 -11 -76 -22 -40 -26 -60 -23 -94
6 -47 49 -116 85 -136 14 -7 48 -64 89 -148 37 -75 70 -138 73 -141 3 -3 17
-25 30 -50 13 -25 28 -50 32 -56 18 -22 102 6 93 31 -3 8 -10 15 -15 15 -17 0
-139 127 -159 168 -30 58 -33 100 -8 113 11 6 26 8 34 5 8 -3 14 -2 14 2 0 8
14 8 96 -2 43 -5 128 -35 121 -43 -7 -6 11 -84 26 -113 20 -41 57 -78 101
-101 34 -18 61 -23 156 -25 183 -5 313 37 400 132 40 43 41 46 25 64 -10 11
-43 24 -74 30 -90 18 -173 58 -245 120 -74 64 -222 220 -212 224 6 2 3 5 -6 5
-10 1 -18 5 -18 10 0 5 -14 14 -30 21 -17 7 -44 25 -60 39 -17 14 -47 40 -69
56 -21 17 -46 42 -55 57 -18 29 -21 42 -7 34 5 -3 35 -8 67 -11 33 -3 75 -7
94 -10 57 -8 154 -17 345 -30 39 -3 97 -8 130 -11 33 -4 76 -8 95 -9 19 -2 35
-4 35 -5 0 -1 11 -3 25 -4 14 -2 43 -6 65 -11 22 -4 47 -9 55 -11 31 -5 74
-15 128 -30 32 -8 64 -17 72 -19 48 -12 220 -65 245 -75 17 -6 31 -11 33 -11
1 1 3 1 5 0 6 -2 36 -10 92 -24 186 -47 362 10 461 150 15 20 15 20 33 -4 10
-13 16 -32 14 -42 -10 -38 -96 -110 -178 -149 -16 -8 -38 -21 -49 -30 -10 -8
-19 -13 -20 -11 0 2 -27 -8 -58 -22 -61 -28 -236 -98 -253 -101 -5 -1 -14 -4
-20 -7 -13 -8 -86 -32 -105 -35 -8 -2 -29 -19 -47 -39 -27 -32 -30 -40 -22
-64 10 -29 65 -63 124 -77 17 -4 35 -10 40 -15 6 -4 22 -10 35 -13 14 -3 61
-12 105 -21 48 -10 142 -18 236 -20 148 -3 160 -2 205 20 58 28 79 45 126 105
59 75 149 277 172 390 10 49 27 115 32 130 5 12 8 12 20 -4 8 -11 14 -16 14
-12 0 5 6 3 14 -3 28 -23 107 -58 112 -50 3 5 7 17 9 26 9 36 103 305 109 310
9 10 -15 33 -33 33 -26 0 -112 46 -146 77 -44 42 -55 67 -60 136 -4 76 -15
105 -55 150 -42 48 -122 77 -230 84 -66 4 -92 11 -122 29 -40 26 -221 117
-298 152 -115 51 -140 60 -140 55 0 -3 -9 2 -20 12 -11 10 -20 15 -20 11 0 -3
-17 1 -37 10 -34 14 -201 73 -213 76 -3 0 -16 4 -29 9 -13 5 -33 11 -45 14
-11 2 -22 4 -23 6 -2 1 -6 2 -10 3 -5 1 -13 4 -19 8 -6 4 -21 9 -35 12 -32 7
-285 74 -326 87 -18 5 -42 12 -55 15 -37 8 -101 22 -128 28 -14 4 -38 9 -54
12 -16 2 -33 7 -37 9 -4 3 -26 7 -49 10 -24 3 -46 7 -49 9 -4 3 -25 7 -47 10
-23 4 -56 11 -74 16 -18 5 -37 7 -41 4 -5 -3 -17 -1 -26 4 -10 6 -36 12 -58
15 -22 3 -67 10 -100 16 -33 6 -82 14 -110 17 -27 4 -53 8 -56 10 -5 3 -66 11
-139 18 -38 4 -38 16 1 104 21 48 39 95 39 105 0 9 4 17 10 17 5 0 9 3 8 8 -1
4 6 34 16 66 43 145 71 271 81 371 2 17 6 43 9 60 3 16 8 82 11 145 3 63 8
142 11 175 3 33 7 98 10 145 4 88 7 94 46 114 12 7 22 17 21 23 -1 6 -4 22 -7
36 -7 42 -86 271 -97 282 -5 5 -9 15 -9 23 0 20 -102 228 -162 330 -46 79
-153 239 -168 252 -3 3 -16 19 -29 35 -40 52 -133 155 -186 206 -57 54 -59 61
-59 209 0 115 6 166 29 245 34 117 138 306 214 388 14 16 38 41 53 57 l27 29
48 -37 c26 -20 54 -42 61 -49 7 -7 17 -13 20 -13 4 0 18 -10 32 -22 14 -13 42
-34 62 -48 21 -14 38 -28 38 -32 0 -5 4 -8 10 -8 7 0 99 -63 155 -108 87 -68
392 -256 520 -320 121 -60 192 -84 264 -87 95 -5 132 39 133 158 2 104 -3 130
-56 322 -20 75 -65 198 -120 330 -63 151 -73 169 -105 193 -17 12 -34 35 -37
50 -11 41 -71 188 -110 267 -19 39 -61 103 -93 143 -31 40 -77 110 -101 156
l-44 84 26 49 c49 90 66 188 44 243 -4 8 -23 26 -43 40 -31 21 -50 25 -117 27
-45 1 -99 -2 -121 -7 -22 -5 -51 -11 -65 -14 -81 -17 -96 -30 -146 -136 -44
-94 -52 -185 -21 -244 19 -35 6 -63 -33 -73 -14 -3 -27 -9 -30 -12 -3 -3 -28
-15 -55 -27 l-51 -21 -59 65 c-81 88 -374 382 -406 407 -32 26 -107 75 -137
91 -22 11 -21 12 30 42 96 54 156 125 153 182 -1 18 -29 78 -66 141 -15 26
-42 73 -60 105 -37 68 -126 203 -166 254 -35 44 -229 240 -237 240 -6 0 -79
54 -123 90 -7 6 -17 10 -23 10 -5 0 -10 5 -10 11 0 5 -4 8 -9 5 -5 -4 -11 -2
-13 2 -4 10 -105 70 -169 99 -107 50 -238 65 -314 35z m-154 -504 c2 -84 -5
-200 -15 -258 -21 -117 -40 -200 -45 -195 -3 4 -4 97 -3 208 2 182 5 207 24
250 12 26 25 47 30 47 4 0 8 -24 9 -52z m25 -553 c2 -11 5 -42 8 -70 4 -27 8
-59 10 -70 2 -12 7 -48 11 -80 7 -56 11 -78 20 -115 2 -8 4 -21 4 -29 1 -9 9
-11 29 -7 47 12 142 51 142 58 0 5 5 8 10 8 6 0 50 25 97 55 48 30 91 55 95
55 10 0 10 -51 0 -66 -4 -6 -54 -43 -112 -81 -156 -104 -231 -184 -355 -380
-33 -51 -62 -88 -66 -82 -3 6 -10 11 -15 11 -5 -1 -31 12 -59 26 -27 15 -68
36 -89 47 -36 18 -41 26 -63 100 -24 79 -41 239 -29 270 5 14 9 13 28 -4 12
-12 28 -21 35 -21 7 0 13 -4 13 -8 0 -13 73 -37 105 -34 35 3 71 25 73 44 4
63 12 229 13 300 1 80 3 87 23 91 43 9 69 3 72 -18z m2201 -773 c18 -24 32
-56 39 -87 9 -39 15 -84 19 -126 l4 -49 -30 5 c-16 3 -53 15 -81 26 -29 12
-58 22 -64 23 -6 1 -41 20 -78 43 l-67 41 107 76 c58 42 112 76 118 76 7 0 21
-12 33 -28z m-2106 -1334 c0 -24 2 -52 4 -63 2 -11 7 -54 10 -95 3 -41 8 -91
10 -110 9 -77 15 -138 20 -205 3 -38 8 -86 11 -105 3 -19 7 -53 8 -75 7 -74
15 -150 20 -180 2 -16 7 -59 11 -95 11 -105 16 -142 31 -230 4 -19 8 -50 9
-69 2 -19 8 -55 14 -80 15 -65 20 -109 14 -115 -7 -6 -43 38 -43 52 0 5 -7 13
-16 16 -9 4 -14 9 -11 12 3 4 -3 15 -14 27 -10 11 -19 30 -20 41 -1 12 -2 37
-4 56 -1 19 -6 89 -10 155 -4 66 -9 145 -11 175 -2 30 -6 96 -9 145 -3 50 -7
122 -10 160 -3 39 -7 117 -10 175 -4 58 -8 123 -10 145 -12 132 -15 305 -6
305 6 0 11 -19 12 -42z"/>
</g>
</svg>
