<?xml version="1.0" encoding="UTF-8" standalone="no"?>
<!DOCTYPE svg PUBLIC "-//W3C//DTD SVG 1.1//EN" "http://www.w3.org/Graphics/SVG/1.1/DTD/svg11.dtd">
<svg width="100%" height="100%" viewBox="0 0 1941 340" version="1.1" xmlns="http://www.w3.org/2000/svg" xmlns:xlink="http://www.w3.org/1999/xlink" xml:space="preserve" xmlns:serif="http://www.serif.com/" style="fill-rule:evenodd;clip-rule:evenodd;stroke-linecap:round;stroke-linejoin:round;stroke-miterlimit:1.5;">
    <g transform="matrix(1,0,0,1,-12.803,-33.5429)">
        <g id="background" transform="matrix(0.987589,0,0,0.895316,-11.0637,-16.3885)">
            <path d="M1989.16,139.335C1989.16,93.214 1955.21,55.77 1913.4,55.77L99.924,55.77C58.112,55.77 24.167,93.214 24.167,139.335L24.167,351.83C24.167,397.951 58.112,435.395 99.924,435.395L1913.4,435.395C1955.21,435.395 1989.16,397.951 1989.16,351.83L1989.16,139.335Z" style="fill:rgb(154,44,85);"/>
        </g>
        <g id="letter-i" transform="matrix(0.967371,0,0,0.967371,-213.581,-1009.87)">
            <rect x="314.327" y="1122.81" width="24.3" height="216" style="fill:white;fill-rule:nonzero;"/>
        </g>
        <g id="letter-m" transform="matrix(0.967371,0,0,0.967371,-213.581,-1009.87)">
            <path d="M609.227,1164.81L379.427,1164.81L379.427,1338.81L404.327,1338.81L404.327,1201.11C404.327,1194.81 409.727,1189.41 416.027,1189.41L488.627,1189.41C494.927,1189.41 500.327,1194.81 500.327,1201.11L500.327,1338.81L525.227,1338.81L525.227,1201.11C525.227,1194.81 530.327,1189.41 536.927,1189.41L609.227,1189.41C615.827,1189.41 621.227,1194.81 621.227,1201.11L621.227,1338.81L645.527,1338.81L645.527,1201.11C645.527,1181.01 629.627,1164.81 609.227,1164.81Z" style="fill:white;fill-rule:nonzero;"/>
        </g>
        <g id="letter-p" transform="matrix(0.967371,0,0,0.967371,-213.581,-1009.87)">
            <path d="M813.827,1164.81L672.827,1164.81L672.827,1407.81L697.427,1407.81L697.427,1338.81L813.827,1338.81C833.927,1338.81 850.127,1322.61 850.127,1302.51L850.127,1201.11C850.127,1181.01 833.927,1164.81 813.827,1164.81ZM825.527,1302.51C825.527,1308.81 820.127,1314.21 813.827,1314.21L709.427,1314.21C702.827,1314.21 697.427,1308.81 697.427,1302.51L697.427,1201.11C697.427,1194.81 702.827,1189.41 709.427,1189.41L813.827,1189.41C820.127,1189.41 825.527,1194.81 825.527,1201.11L825.527,1302.51Z" style="fill:white;fill-rule:nonzero;"/>
        </g>
        <g id="letter-r" transform="matrix(0.967371,0,0,0.967371,-213.581,-1009.87)">
            <path d="M907.727,1164.81C887.627,1164.81 871.427,1181.01 871.427,1201.11L871.427,1338.81L896.027,1338.81L896.027,1201.11C896.027,1194.81 901.427,1189.41 907.727,1189.41L1005.53,1189.41L1005.53,1164.81L907.727,1164.81Z" style="fill:white;fill-rule:nonzero;"/>
        </g>
        <g id="letter-01" transform="matrix(0.967371,0,0,0.967371,-213.581,-1009.87)">
            <path d="M1059.53,1164.81C1039.43,1164.81 1023.23,1181.01 1023.23,1201.11L1023.23,1302.51C1023.23,1322.61 1039.43,1338.81 1059.53,1338.81L1163.93,1338.81C1184.33,1338.81 1200.53,1322.61 1200.53,1302.51L1200.53,1201.11C1200.53,1181.01 1184.33,1164.81 1163.93,1164.81L1059.53,1164.81ZM1163.93,1189.41C1170.53,1189.41 1175.63,1194.81 1175.63,1201.11L1175.63,1302.51C1175.63,1308.81 1170.53,1314.21 1163.93,1314.21L1059.53,1314.21C1053.23,1314.21 1047.83,1308.81 1047.83,1302.51L1047.83,1201.11C1047.83,1194.81 1053.23,1189.41 1059.53,1189.41L1163.93,1189.41Z" style="fill:white;fill-rule:nonzero;"/>
        </g>
        <g id="image" transform="matrix(0.301976,0,0,0.301976,1071.21,58.4702)">
            <path d="M456.705,24.871C447.831,28.374 440.134,33.711 433.378,40.513C427.12,73.939 417.807,105.72 406.512,136.714L412.122,150.718C406.557,155.384 404.093,160.049 405.372,164.715C401.579,172.018 400.651,178.189 400.638,183.998L371.286,224.968C357.194,274.493 329.054,338.506 323.255,366.48L326.947,384C323.934,414.596 323.835,445.192 325.801,475.788L318.972,487.606C321.146,494.099 323.532,499.555 327.399,497.758L325.617,513.328C307.124,524.462 291.247,537.769 280.244,555.123C276.136,573.279 277.705,586.859 291.096,590.909C300.283,594.19 315.336,582.648 339.875,547.135C353.36,551.693 366.698,550.508 379.795,539.838C386.43,541.016 391.128,539.485 389.764,529.476L401.575,529.471C397.322,554.544 384.463,582.733 367.39,604.688C279.707,620.664 211.781,634.216 139.638,632.183C141.108,622.277 122.647,629.209 94.103,644.658L99.016,679.225L106.111,681.543C106.003,713.499 108.13,743.179 131.745,750.99L162.36,750.99C186.463,746.035 180.239,737.117 150.864,722.691C156.352,712.078 161.138,701.691 160.736,691.279L195.054,735.586C212.008,742.813 258.559,725.376 324.103,692.112C367.769,699.364 403.39,694.843 420.564,663.33L493.539,585.142L519.639,601.836C538.201,581.141 553.933,557.12 566.079,528.884C590.859,539.074 617.457,546.396 648.539,546.643C647.655,569.895 654.489,584.27 664.35,595.163C663.605,614.486 668.4,633.148 678.063,651.229C677.061,660.351 672.516,667.242 664.592,672.003C668.01,674.61 671.52,690.31 675.211,732.277C688.76,735.72 701.655,736.575 715.204,735.412C719.204,723.206 730.4,724.553 744.872,734.153C766.078,737.58 784.729,736.222 802.546,733.303C810.537,730.693 812.461,726.381 807.235,720.062C796.903,715.868 785.241,708.737 770.87,695.626C779.854,701.47 768.947,668.889 762.646,645.204C760.612,628.634 805.147,619.061 853.91,598.59C840.454,469.696 788.5,438.656 706.247,404.289C686.457,389.141 692.458,381.225 705.69,356.279C712.802,340.692 713.014,318.848 708.532,303.505C722.08,305.921 730.716,301.287 732.174,286.352C740.507,259.546 745.358,229.589 743.896,193.914C755.625,193.533 761.545,188.142 756.422,173.23C755.191,163.537 750.827,156.69 744.473,151.652C740.448,146.215 719.505,145.061 701.293,143.216C690.407,143.026 678.391,134.107 665.496,118.391C660.827,115.226 661.29,109.948 662.18,104.494C679.833,79.65 681.36,55.356 652.233,32.11C632.746,18.06 614.772,11.313 602.037,29.862C584.402,32.586 578.998,45.572 574.212,59.077C575.846,77.581 579.018,88.322 586.557,89.08L581.721,108.991C585.012,111.98 587.849,112.641 590.136,110.494L591.816,123.049L596.558,128.213L599.466,133.745C586.003,133.39 574.522,136.873 564.179,142.558C546.705,142.996 529.658,150.903 512,154.884C505.861,152.612 510.006,148.54 514.518,144.326C530.291,144.63 539.565,143.523 539.681,138.573L539.306,110.391L549.376,107.275C546.933,99.277 537.528,92.78 532.56,84.404L538.19,79.952C530.835,66.53 524.862,51.132 520.836,38.313C519.613,31.019 511.998,26.085 494.692,24.731C493.3,29.052 480.792,29.158 456.705,24.871ZM375.005,498.05L364.421,488.606L360.145,465.78C357.679,414.714 375.804,364.119 408.72,313.862C409.059,337.605 416.682,356.534 433.126,374.732L432.411,392.098C411.739,420.307 398.136,451.116 397.969,486.867L375.005,498.05ZM562.554,269.026C558.768,289.544 558.715,311.845 562.398,332.658L571.987,334.659C587.354,311.84 595.887,288.977 594.108,272.5C583.59,276.056 573.072,274.434 562.554,269.026ZM429.218,406.783C412.575,430.064 406.691,456.648 404.331,479.928C435.918,455.589 476.771,440.315 522.531,433.032C526.76,419.855 537.545,397.938 542.205,384.762C525.768,384.687 509.181,387.006 492.312,393.787C466.483,420.88 448.1,427.418 429.218,406.783ZM140.147,639.214C148.51,667.624 166.336,696.761 198.346,726.988C220.052,732.337 258.278,720.095 320.869,681.906C374.582,696.164 405.138,687.3 415.809,658.579L487.698,582.111C468.603,565.523 451.549,547.406 440.441,524.835L408.405,534.73L375.038,609.6C271.118,631.674 203.238,636.585 140.147,639.214ZM569.579,518.419C599.022,496.295 627.795,464.36 643.435,430.929L709.595,447.652C733.282,449.678 736.683,468.991 734.501,493.06C736.596,560.177 749.626,625.9 768.054,689.335C709.143,696.574 702.512,716.388 679.316,714.105C673.974,700.658 671.938,687.192 674.823,673.699C681.368,669.766 684.77,664.165 689.493,648.71C670.92,629.882 670.482,611.767 676.269,593.895C654.711,577.223 652.425,560.551 661.194,543.879C630.655,544.564 600.117,538.663 569.579,518.419ZM577.706,60.04C577.352,77.314 581.538,85.822 589.26,87.506L584.582,107.185L591.122,107.639L594.228,120.523L601.843,131.892C603.572,139.772 614.54,136.602 622.925,133.265L637.459,147.043C653.881,145.779 661.415,138.929 666.243,124.832C662.666,119.825 658.853,114.966 658.734,107.146L648.248,106.993C664.851,71.694 640.589,73.072 640.563,94.276C630.761,72.976 616.486,80.335 610.242,69.056C599.512,54.444 607.039,78.224 599.766,75.306C592.203,72.271 577.706,60.04 577.706,60.04ZM520.596,45.945L524.307,66.9C511.433,81.569 504.058,93.407 512,97.357C505.312,102.066 498.118,97.841 490.577,87.506C477.465,81.753 475.692,87.269 480.239,99.067C481.157,104.898 483.304,109.64 492.845,107.834C492.514,113.557 495.186,119.044 501.157,124.272C492.963,135.09 484.43,138.083 480.453,140.182C484.771,149.554 496.187,152.355 505.969,149.781L513.909,140.584C523.382,143.285 531.002,142.604 536.613,138.25C536.172,132.757 536.639,121.944 537.806,107.026L547.408,105.384L531.113,88.065C529.718,85.053 530.628,83.818 535.618,79.099L520.596,45.945ZM330.361,497.701L329.126,513.206C327.011,523.492 332.578,534.32 342.187,545.434C355.199,551.448 367.146,547.207 378.595,538.189C387.414,540.033 389.987,536.193 388.288,528.465C386.419,518.512 383.295,508.758 374.901,499.842L362.7,489.036C347.16,477.048 336.669,480.838 330.361,497.701ZM744.008,197.011L717.432,182.057C700.948,201.239 707.518,227.525 698.684,262.607C665.735,266.777 627.487,258.749 592.821,248.904C573.902,236.465 554.69,230.699 536.376,226.272C523.991,225.25 528.146,228.673 533.781,232.465C541.181,233.245 547.049,236.766 554.704,241.658C544.13,239.705 533.86,239.141 523.798,239.528C518.122,240.608 514.092,244.852 529.432,247.872C515.709,247.848 520.546,251.631 525.023,254.933C534.346,255.918 543.976,257.653 554.669,261.98L546.016,268.477L537.096,271.934C536.85,275.607 538.325,276.456 544.991,275.736C554.897,272.206 560.527,271.304 564.356,264.519C574.713,273.507 584.751,272.524 594.618,266.219C635.25,290.203 673.488,304.658 706.066,296.574C718.016,301.753 728.132,303.561 727.762,286.091C739.105,271.251 744.048,240.374 744.008,197.011ZM402.825,179.364C401.884,176.752 404.394,171.967 407.903,166.398C406.964,160.363 407.751,155.85 411.949,154.345C414.603,146.387 419.575,143.597 426.467,145.091C430.964,142.141 446.829,147.301 444.594,143.615C449.476,147.415 449.991,150.065 444.124,151.036L462.038,160.176C464.494,163.029 466.976,166.896 457.499,166.614C467.671,172.075 462.147,175.665 458.806,175.698L446.762,172.566C451.634,175.714 453.012,178.59 447.48,180.926C436.11,181.203 425.592,178.389 415.506,174.012C415.352,179.785 413.071,183.324 407.827,183.75L402.825,179.364ZM711.401,153.84L723.666,150.997C717.202,154.489 713.455,158.137 713.23,161.987C713.952,166.138 716.504,166.527 719.437,166.135C714.181,170.75 714.673,174.001 721.478,175.752C721.58,178.532 723.543,180.552 727.199,181.88C734.555,184.656 742.329,184.105 750.204,182.744L734.623,185.643C734.01,188.031 734.411,190.25 739.153,191.742C746.246,194.299 752.878,190.935 758.181,184.31C754.995,171.287 751.555,158.81 744.371,154.383C745.113,151.571 728.757,147.066 711.395,146.885C707.551,149.203 706.83,151.522 711.401,153.84ZM518.941,161.384C546.838,162.333 561.559,171.601 569.35,185.247C578.594,177.763 577.667,165.341 564.465,146.959C552.703,144.602 536.101,152.156 518.569,156.661L518.941,161.384ZM622.054,149.996C616.794,167.074 614.487,178.209 619.803,197.201C619.617,210.76 622.798,215.804 632.634,204.016C650.285,184.209 655.427,174.487 663.412,152.735C644.116,169.175 634.006,166.06 622.054,149.996ZM115.855,684.208C112.087,706.137 114.87,723.937 124.205,737.608C137.977,749.2 151.051,747.357 163.979,742.726C165.796,740.546 140.542,744.028 128.785,730.702C115.7,715.871 115.855,684.208 115.855,684.208ZM378.463,499.578C384.503,507.814 389.231,516.392 390.72,525.81C407.326,528.89 420.713,523.792 436.168,519.347L418.85,481.466C406.407,491.54 392.697,494.146 378.463,499.578ZM311.924,527.007C286.021,543.414 272.789,562.063 286.754,585.525C289.204,588.154 290.735,587.532 292.456,585.094C277.175,567.596 287.808,547.879 311.924,527.007ZM752.064,726.677C768.507,731.689 785.116,730.531 801.844,724.942L789.473,716.492C794.32,729.618 759.356,721.773 752.064,726.677Z" style="fill:white;fill-opacity:0.92;stroke:black;stroke-opacity:0;stroke-width:3.31px;"/>
        </g>
        <g id="letter-t" transform="matrix(0.967371,0,0,0.967371,-199.389,-1009.87)">
            <path d="M1324.43,1189.41L1324.43,1164.81L1249.13,1164.81L1249.13,1107.81L1224.53,1107.81L1224.53,1302.51C1224.53,1322.61 1240.43,1338.81 1260.83,1338.81L1324.43,1338.81L1324.43,1314.21L1260.83,1314.21C1254.53,1314.21 1249.13,1308.81 1249.13,1302.51L1249.13,1189.41L1324.43,1189.41Z" style="fill:white;fill-rule:nonzero;"/>
        </g>
        <g id="letter-n" transform="matrix(0.967371,0,0,0.967371,-156.433,-1009.87)">
            <path d="M1692.53,1164.81L1551.53,1164.81L1551.53,1338.81L1576.13,1338.81L1576.13,1201.11C1576.13,1194.81 1581.53,1189.41 1588.13,1189.41L1692.53,1189.41C1698.83,1189.41 1704.23,1194.81 1704.23,1201.11L1704.23,1338.81L1728.83,1338.81L1728.83,1201.11C1728.83,1181.01 1712.63,1164.81 1692.53,1164.81Z" style="fill:white;fill-rule:nonzero;"/>
        </g>
        <g id="letter-g" transform="matrix(0.967371,0,0,0.967371,-156.433,-1009.87)">
            <path d="M1933.43,1370.91L1933.43,1201.11C1933.43,1181.01 1917.53,1164.81 1897.13,1164.81L1792.73,1164.81C1772.63,1164.81 1756.43,1181.01 1756.43,1201.11L1756.43,1302.51C1756.43,1322.61 1772.63,1338.81 1792.73,1338.81L1908.83,1338.81L1908.83,1370.91C1908.83,1377.21 1903.43,1382.61 1897.13,1382.61L1788.53,1382.61L1788.53,1407.51L1897.13,1407.51C1917.53,1407.51 1933.43,1391.31 1933.43,1370.91ZM1792.73,1314.21C1786.43,1314.21 1781.03,1308.81 1781.03,1302.51L1781.03,1201.11C1781.03,1194.81 1786.43,1189.41 1792.73,1189.41L1897.13,1189.41C1903.43,1189.41 1908.83,1194.81 1908.83,1201.11L1908.83,1302.51C1908.83,1308.81 1903.43,1314.21 1897.13,1314.21L1792.73,1314.21Z" style="fill:white;fill-rule:nonzero;"/>
        </g>
        <g id="letter-o" transform="matrix(0.967371,0,0,0.967371,-156.433,-1009.87)">
            <path d="M1994.63,1164.81C1974.53,1164.81 1958.33,1181.01 1958.33,1201.11L1958.33,1302.51C1958.33,1322.61 1974.53,1338.81 1994.63,1338.81L2099.03,1338.81C2119.43,1338.81 2135.63,1322.61 2135.63,1302.51L2135.63,1201.11C2135.63,1181.01 2119.43,1164.81 2099.03,1164.81L1994.63,1164.81ZM2099.03,1189.41C2105.63,1189.41 2110.73,1194.81 2110.73,1201.11L2110.73,1302.51C2110.73,1308.81 2105.63,1314.21 2099.03,1314.21L1994.63,1314.21C1988.33,1314.21 1982.93,1308.81 1982.93,1302.51L1982.93,1201.11C1982.93,1194.81 1988.33,1189.41 1994.63,1189.41L2099.03,1189.41Z" style="fill:white;fill-rule:nonzero;"/>
        </g>
    </g>
</svg>
