<?xml version="1.0" encoding="UTF-8" standalone="no"?>
<!DOCTYPE svg PUBLIC "-//W3C//DTD SVG 1.1//EN" "http://www.w3.org/Graphics/SVG/1.1/DTD/svg11.dtd">
<svg width="100%" height="100%" viewBox="0 0 113 17" version="1.1" xmlns="http://www.w3.org/2000/svg" xmlns:xlink="http://www.w3.org/1999/xlink" xml:space="preserve" xmlns:serif="http://www.serif.com/" style="fill-rule:evenodd;clip-rule:evenodd;stroke-linejoin:round;stroke-miterlimit:2;">
    <g transform="matrix(0.375,0,0,0.375,-9.2985,-20.3086)">
        <g transform="matrix(0.152672,0,0,0.115904,21.1064,47.6923)">
            <path d="M1989.16,139.335C1989.16,93.214 1955.21,55.77 1913.4,55.77L99.924,55.77C58.112,55.77 24.167,93.214 24.167,139.335L24.167,351.83C24.167,397.951 58.112,435.395 99.924,435.395L1913.4,435.395C1955.21,435.395 1989.16,397.951 1989.16,351.83L1989.16,139.335Z" style="fill:rgb(154,44,85);"/>
        </g>
        <g transform="matrix(0.520562,0,0,0.520562,9.2714,22.2591)">
            <path d="M58.909,133.424L50.198,133.424L60.636,76.522L69.348,76.522L58.909,133.424Z" style="fill:white;fill-rule:nonzero;"/>
        </g>
        <g transform="matrix(0.520562,0,0,0.520562,9.2714,22.2591)">
            <path d="M83.162,133.424L74.764,133.424L85.202,76.522L92.266,76.522L108.669,110.271L137.63,76.522L145.401,76.522L134.962,133.424L126.486,133.424L134.177,92.141L108.826,121.416L105.373,121.416L90.853,92.062L83.162,133.424Z" style="fill:white;fill-rule:nonzero;"/>
        </g>
        <g transform="matrix(0.520562,0,0,0.520562,9.2714,22.2591)">
            <path d="M161.255,76.522L179.463,76.522C186.056,76.522 191.158,78.079 194.768,81.192C198.378,84.305 200.183,88.714 200.183,94.417C200.183,100.434 197.907,105.457 193.355,109.486C188.855,113.515 183.231,115.529 176.481,115.529L162.589,115.529L159.292,133.424L150.816,133.424L161.255,76.522ZM164.08,107.524L177.03,107.524C181.111,107.524 184.512,106.32 187.233,103.914C190.006,101.454 191.393,98.42 191.393,94.809C191.393,91.251 190.425,88.635 188.489,86.961C186.553,85.286 183.544,84.449 179.463,84.449L168.24,84.449L164.08,107.524Z" style="fill:white;fill-rule:nonzero;"/>
        </g>
        <g transform="matrix(0.520562,0,0,0.520562,9.2714,22.2591)">
            <path d="M253.083,93.475C253.083,98.236 251.513,102.396 248.374,105.954C245.339,109.46 241.284,111.814 236.208,113.018L247.118,133.424L237.229,133.424L227.889,113.724L215.096,113.724L211.485,133.424L203.009,133.424L213.447,76.522L232.284,76.522C238.929,76.522 244.057,78 247.667,80.957C251.277,83.913 253.083,88.086 253.083,93.475ZM216.587,105.719L230.479,105.719C234.508,105.719 237.804,104.62 240.368,102.422C242.984,100.12 244.292,97.268 244.292,93.867C244.292,90.623 243.337,88.243 241.428,86.725C239.518,85.208 236.522,84.449 232.441,84.449L220.433,84.449L216.587,105.719Z" style="fill:white;fill-rule:nonzero;"/>
        </g>
        <g transform="matrix(0.520562,0,0,0.520562,9.2714,22.2591)">
            <path d="M286.753,134.209C279.061,134.209 272.678,131.75 267.602,126.831C262.527,121.913 259.989,115.713 259.989,108.23C259.989,99.021 263.181,91.304 269.565,85.077C275.948,78.851 283.901,75.737 293.424,75.737C301.011,75.737 307.368,78.223 312.496,83.193C317.624,88.164 320.188,94.312 320.188,101.638C320.188,110.951 316.996,118.721 310.613,124.948C304.281,131.122 296.328,134.209 286.753,134.209ZM287.067,126.125C294.078,126.125 299.886,123.875 304.491,119.375C309.095,114.928 311.397,109.198 311.397,102.187C311.397,96.745 309.697,92.324 306.296,88.923C302.947,85.469 298.552,83.743 293.11,83.743C286.099,83.743 280.291,86.019 275.686,90.571C271.082,95.019 268.78,100.696 268.78,107.602C268.78,112.992 270.48,117.439 273.881,120.945C277.282,124.398 281.678,126.125 287.067,126.125Z" style="fill:white;fill-rule:nonzero;"/>
        </g>
        <g transform="matrix(0.425589,0,0,0.425589,-22.9182,29.4034)">
            <path d="M472.634,76.908L523.706,76.908L523.034,80.748L499.514,80.748L487.418,146.508L483.386,146.508L495.482,80.748L471.866,80.748L472.634,76.908Z" style="fill:white;fill-rule:nonzero;"/>
        </g>
        <g transform="matrix(0.425589,0,0,0.425589,-22.9182,29.4034)">
            <path d="M566.618,146.508L562.394,146.508L557.594,126.156L519.962,126.156L507.77,146.508L503.066,146.508L545.21,76.908L549.914,76.908L566.618,146.508ZM546.074,82.764L522.266,122.412L556.73,122.412L547.322,82.764L547.13,80.652L546.074,82.764Z" style="fill:white;fill-rule:nonzero;"/>
        </g>
        <g transform="matrix(0.425589,0,0,0.425589,-22.9182,29.4034)">
            <path d="M582.074,146.508L578.138,146.508L590.906,76.908L594.362,76.908L628.346,140.076L639.866,76.908L643.802,76.908L631.034,146.508L627.482,146.508L593.594,83.34L582.074,146.508Z" style="fill:white;fill-rule:nonzero;"/>
        </g>
        <g transform="matrix(0.425589,0,0,0.425589,-22.9182,29.4034)">
            <path d="M686.906,113.388L687.482,109.836L719.066,109.836L712.346,146.508L709.178,146.508L712.058,128.844C708.986,134.796 705.018,139.372 700.154,142.572C695.29,145.772 689.818,147.372 683.738,147.372C675.482,147.372 668.506,144.428 662.81,138.54C657.242,132.588 654.458,125.196 654.458,116.364C654.458,104.908 658.106,95.34 665.402,87.66C672.698,79.916 681.754,76.044 692.57,76.044C698.33,76.044 703.514,77.468 708.122,80.316C712.73,83.164 716.314,87.18 718.874,92.364L715.13,93.996C712.954,89.516 709.882,86.044 705.914,83.58C701.946,81.116 697.402,79.884 692.282,79.884C682.618,79.884 674.586,83.34 668.186,90.252C661.786,97.1 658.586,105.74 658.586,116.172C658.586,124.108 660.986,130.668 665.786,135.852C670.714,140.972 676.794,143.532 684.026,143.532C691.386,143.532 697.818,140.78 703.322,135.276C708.89,129.708 712.57,122.412 714.362,113.388L686.906,113.388Z" style="fill:white;fill-rule:nonzero;"/>
        </g>
        <g transform="matrix(0.425589,0,0,0.425589,-22.9182,29.4034)">
            <path d="M762.938,147.372C754.298,147.372 747.066,144.396 741.242,138.444C735.482,132.428 732.602,125.004 732.602,116.172C732.602,104.716 736.282,95.18 743.642,87.564C751.066,79.884 760.186,76.044 771.002,76.044C779.642,76.044 786.842,79.02 792.602,84.972C798.426,90.796 801.338,98.188 801.338,107.148C801.338,118.54 797.658,128.108 790.298,135.852C782.874,143.532 773.754,147.372 762.938,147.372ZM763.13,143.532C772.858,143.532 780.954,140.108 787.418,133.26C793.882,126.284 797.114,117.676 797.114,107.436C797.114,99.5 794.618,92.94 789.626,87.756C784.762,82.508 778.522,79.884 770.906,79.884C761.178,79.884 753.05,83.34 746.522,90.252C739.994,97.036 736.73,105.58 736.73,115.884C736.73,123.884 739.226,130.508 744.218,135.756C749.21,140.94 755.514,143.532 763.13,143.532Z" style="fill:white;fill-rule:nonzero;"/>
        </g>
    </g>
</svg>
