<?xml version="1.0" encoding="UTF-8" standalone="no"?>
<!DOCTYPE svg PUBLIC "-//W3C//DTD SVG 1.1//EN" "http://www.w3.org/Graphics/SVG/1.1/DTD/svg11.dtd">
<svg width="100%" height="100%" viewBox="0 0 201 272" version="1.1" xmlns="http://www.w3.org/2000/svg" xmlns:xlink="http://www.w3.org/1999/xlink" xml:space="preserve" xmlns:serif="http://www.serif.com/" style="fillRule:evenodd;clip-rule:evenodd;strokeLinecap:round;strokeLinejoin:round;strokeMiterlimit:1.5;">
    <g transform="matrix(1,0,0,1,-5,-4.90473)">
        <g id="Neck" transform="matrix(0.0762141,0,0,0.0762141,-13.0008,-0.762724)">
            <path d="M1108,678L1090,875L1271,745.768L1266,667L1108,678Z" style="fill:rgb(221,180,159);"/>
        </g>
        <g id="leg-minna-2" transform="matrix(0.0762141,0,0,0.0762141,-13.0008,-0.762724)">
            <path d="M494.089,1956C524.46,1797.64 651.384,1645.61 876,1500L847,1802L494.089,1956Z" style="fill:rgb(243,189,150);stroke:black;strokeWidth:2.5px;"/>
        </g>
        <g transform="matrix(0.0762141,0,0,0.0762141,-13.0008,-0.762724)">
            <path d="M567.214,1812.69C629.733,1715.02 715.519,1637.3 831.262,1548.13L812.446,1641.15C809.746,1592.54 797.197,1578.68 767.957,1623.68C736.386,1657.8 723.212,1686.64 761.943,1700.59L705.761,1708.51C659.913,1718.4 640.034,1746.85 626.586,1779.91L567.214,1812.69Z" style="fill:rgb(248,212,187);"/>
        </g>
        <g transform="matrix(0.0762141,0,0,0.0762141,-13.0008,-0.762724)">
            <path d="M876,1500C830.708,1510.87 748.885,1445.02 745.201,1437.05C741.994,1424.38 741.585,1401.53 759.427,1396.53C802.59,1384.43 861.306,1371.13 911.047,1389.62L876,1500Z"/>
        </g>
        <g transform="matrix(0.0762141,0,0,0.0762141,-13.0008,-0.762724)">
            <path d="M773.843,1410.66C822.689,1387.78 873.263,1386.24 925.996,1411.37L870.936,1440.84C874.318,1383.94 814.929,1407.85 773.843,1410.66Z" style="fill:rgb(102,91,122);"/>
        </g>
        <g id="shirt" transform="matrix(0.0762141,0,0,0.0762141,-13.0008,-0.762724)">
            <path d="M1068,819C974.205,948.968 917.492,1007.02 901,1100L899.04,1405.18C816.045,1617.9 869.13,1682.62 816,1802L1508.5,1560C1485.56,1378.33 1440.85,1155.42 1478,1113C1479.41,1111.39 1785.72,978.569 1772,954C1726.2,871.964 1502.5,784 1502.5,784C1502.5,784 1443.79,718.64 1344.61,707.768L1068,819Z" style="fill:rgb(73,62,83);"/>
        </g>
        <g transform="matrix(0.0762141,0,0,0.0762141,-13.0008,-0.762724)">
            <path d="M1161.08,784.805L1243.72,888.839L1309.12,777.206L1199.68,767.202L1161.08,784.805Z" style="fill:rgb(41,29,48);stroke:black;strokeWidth:0.6px;"/>
        </g>
        <g id="collar" transform="matrix(0.0762141,0,0,0.0762141,-13.1847,-0.286481)">
            <path d="M1177,770.957L1244.79,851.851L1355.46,715.593L1272.77,723.876L1177,770.957Z" style="fill:rgb(73,62,83);stroke:black;strokeWidth:2px;"/>
        </g>
        <g id="shirt-detail-1" serif:id="shirt detail-1" transform="matrix(0.0762141,0,0,0.0762141,-13.0008,-0.762724)">
            <path d="M1174.58,777.206C1016.56,834.672 925.994,1227.59 870.936,1759.89" style="fill:none;stroke:black;strokeWidth:4.5px;"/>
        </g>
        <g id="shoe-1" transform="matrix(0.0762141,0,0,0.0762141,-13.0008,-0.762724)">
            <path d="M381,3412C346.149,3431.47 322.816,3456.62 304,3484C297.854,3507.82 282.346,3528.3 259,3546C223.645,3598.5 228.444,3629.98 280,3637C330.103,3645.58 378.55,3642.73 426,3633C494.987,3630.62 528.995,3595.9 552,3551C550.395,3521.78 580.464,3495.17 628,3470C635.428,3446.57 633.515,3433.55 624,3429C527.581,3405.69 447.159,3400.68 381,3412Z" style="fill:rgb(5,2,10);"/>
        </g>
        <g id="heel-1" transform="matrix(0.0762141,0,0,0.0762141,-13.0008,-0.762724)">
            <path d="M552,3551L576,3548L625,3516C633.817,3494.33 636.419,3472.67 632.546,3451C610.145,3469.67 589.104,3488.33 570,3507C559.488,3517.81 550.829,3530.2 552,3551Z" style="fill:rgb(5,2,10);"/>
        </g>
        <g id="shoe-2" transform="matrix(0.0762141,0,0,0.0762141,-13.0008,-0.762724)">
            <path d="M2636,3048C2662.43,3041.8 2713.27,3065.69 2749,3102C2718.6,3134.13 2732.38,3186.34 2756,3282C2766.65,3380.5 2782.55,3483.45 2725,3524.15C2660.96,3542.34 2440.5,3559.24 2459,3524.15C2456.37,3496.33 2488,3466.56 2551,3435C2562.21,3364.9 2559.16,3294.91 2546,3225C2638.95,3179.52 2670.27,3120.8 2636,3048Z" style="fill:rgb(5,2,10);"/>
        </g>
        <g id="heel-2" transform="matrix(0.0762141,0,0,0.0762141,-13.0008,-0.762724)">
            <path d="M2748,3094L2787,3119C2798.2,3169.05 2806.22,3221.23 2803,3281C2786.24,3291.38 2760.96,3289.91 2745,3282C2716.76,3156.75 2724.04,3091.74 2748,3094Z" style="fill:rgb(5,2,10);"/>
        </g>
        <g id="leg-1" transform="matrix(0.0762141,0,0,0.0762141,-13.0008,-0.762724)">
            <path d="M787,1981.98C654.91,2032.93 589.236,2115.34 463,2236C384.757,2310.79 313.963,2443.52 295,2645C301.821,2802.21 300.186,2908.87 294,3043C317.451,3201.49 303.792,3359.59 316,3467C406.123,3427.51 480.543,3431.67 567,3484C592.948,3479.03 614.605,3466.42 624,3432C600.263,3372.64 585.073,3352.92 576,3335C600.72,3184.34 638.108,3027.81 628,2881C620.454,2801.64 602.269,2749.36 608.002,2723.98C610.775,2711.7 619.138,2705.72 637,2706C874.352,2499.55 1009.07,2314.11 1075,2235L787,1981.98Z" style="fill:rgb(40,64,115);stroke:black;strokeWidth:2px;"/>
        </g>
        <g id="leg-2" transform="matrix(0.0762141,0,0,0.0762141,-13.0008,-0.762724)">
            <path d="M1138,2138C1171.86,2273.28 1206.28,2421.14 1348,2567C1462.36,2696.67 1630.09,2908.48 1811,3031C2000.29,3159.2 2282.4,3186.8 2483.74,3336.2C2563.8,3286.18 2669.82,3193.1 2665,3031C2526.17,2943.22 2368.88,2864.62 2200,2806C1790.08,2555.08 1625.81,2395.48 1712,2329L1138,2138Z" style="fill:rgb(40,64,115);stroke:black;strokeWidth:2.5px;"/>
        </g>
        <g transform="matrix(0.0762141,0,0,0.0762141,-13.0008,-0.762724)">
            <path d="M1243.15,2356.18L1829.08,2548.26L1824.93,2625.25C1858.89,2701.73 1986.76,2681.2 2022.54,2698.33C1960.95,2727.81 1868.92,2834.8 1901.58,2899.72L1963.45,2822.88L2088.25,3093.94L2123.1,2878.07L2194,3122.9L2194,2827C2237.96,3017.9 2284.2,3154.95 2334.74,3191.15L2305.5,2942.21C2336.89,3118.83 2392.7,3212.96 2464.37,3253.56L2434.84,3030.4C2459.32,3098.15 2476.29,3180.44 2548.82,3155.17L2627.09,3053.81L2493.5,3288.36C2155.87,3175.16 1980.04,3093.14 1870.46,3023.89C1826.35,2817.13 1708.18,2642.18 1557.26,2547.43C1477.95,2497.64 1389.58,2458.91 1298.16,2473.36L1243.15,2356.18Z" style="fill:rgb(13,21,37);stroke:black;strokeWidth:0.6px;"/>
        </g>
        <g transform="matrix(0.0762141,0,0,0.0762141,-13.0008,-0.762724)">
            <path d="M679.043,2037.6C611.474,2098.22 580.018,2114.18 577.801,2177.69C706.474,2226.22 769.066,2294.68 845.836,2335.85C790.541,2458.19 872.926,2477.82 684.5,2561.69C653.38,2594.22 522.456,2620.22 494.089,2597.45L559.785,2669.97C535.891,2704.68 502.548,2709.78 453.191,2664.71L494.089,2801.91C511.59,2916.12 474.319,2943.73 408.31,3031L536.809,2904.02C515.762,3012.6 465.033,3078.59 448.764,3141.22L562.566,3031C535.69,3156.6 493.958,3255.61 442.154,3336.58L547.171,3217.41L494.089,3399.99C526.358,3408.28 571.711,3356.86 557.999,3467.33C589.172,3464.81 610.045,3462.23 627.306,3424.89L581.167,3326.99C590.442,3204.22 612.343,3069.22 616.997,2953.22C622.244,2822.46 603.724,2765.52 602.414,2695.81C724.279,2657.19 867.575,2463.81 1053.14,2273.16L679.043,2037.6" style="fill:rgb(13,21,37);"/>
        </g>
        <g id="leg-minna" transform="matrix(0.0762141,0,0,0.0762141,-13.0008,-0.762724)">
            <path d="M2012,2827C1945.86,2910.91 1866.7,3058.44 1822,3191.15C1783.74,3273.48 1729.45,3286.98 1699,3364C1779.31,3428.29 1859.92,3441.12 1941,3375C1973.55,3174.92 2127.27,2974.28 2194,2977L2012,2827Z" style="fill:rgb(243,189,150);stroke:black;strokeWidth:2px;"/>
        </g>
        <g id="shoe-minna" transform="matrix(0.0762141,0,0,0.0762141,-13.0008,-0.762724)">
            <path d="M1736,3295.82C1680.59,3351.39 1657.15,3409.45 1717,3474C1741.71,3516.33 1742.5,3558.67 1735,3601L1798,3607C1791.85,3564.57 1789.3,3525.23 1816,3511C1835.68,3477.49 1868.52,3488.09 1908,3521C1927.22,3560.88 1952.83,3582.65 1980,3600C2071.34,3617.41 2158.53,3614.04 2243,3597C2276.49,3575.33 2283.72,3553.67 2279,3532L2106,3501C2017.39,3387 1961.16,3305.27 1955.5,3320C1828.79,3378.32 1757.53,3367.89 1736,3295.82Z" style="fill:rgb(5,1,9);fill-opacity:0.95;"/>
        </g>
        <g transform="matrix(0.0762141,0,0,0.0762141,-13.0008,-0.762724)">
            <path d="M1129.34,1602.24C1202.75,1440.21 1202.44,1291.11 1174.58,1146.85C1249.38,1103.63 1267.33,1069.46 1263.82,1038.7C1325.58,1074.82 1349.54,1059.52 1353.05,1016.38L1263.82,970.086C1303.59,983.529 1337.26,985.723 1353.05,954.927L1294.22,910.813C1321.49,921.139 1348.84,931.788 1358.83,908.854L1353.05,1038.02L1490.88,1111.08C1435.26,1086.51 1462.17,1289.56 1488.91,1532.79L1129.34,1602.24Z" style="fill:rgb(41,29,48);"/>
        </g>
        <g id="hair-martin" transform="matrix(0.0762141,0,0,0.0762141,-13.0008,-0.762724)">
            <path d="M1182,149C1166.45,113.063 1134.04,109.738 1061,185C1015.91,204.456 986.562,265.426 978,373C966.677,358.654 952.918,393.422 944.664,418.359C936.016,444.486 931.039,479.423 926,515C925.719,565.875 941.313,614.666 968,662C975.053,698.667 964.071,735.333 947,772L1001.58,714.768C1004.73,765.686 986.13,799.665 959,827L1030.28,773C1026.57,807.972 1018.91,850.386 991,884L1061,818C1063.95,858.397 1051.39,891.664 1030.28,921C1069.49,905.7 1099.29,882.184 1110,842C1113.08,792.461 1107.8,744.761 1108,698C1062.8,645.553 1038.9,588.045 1046.28,523.107C1032.96,462.842 1051.64,404.764 1058,337C1088.58,248.623 1130.24,222.538 1180,242L1314,308L1267,672L1270,816C1291.54,757.164 1314.83,739.634 1339,743L1349.61,766L1381,714.768L1386,752L1417.17,661L1349.61,191C1277.13,118.062 1213.89,77.925 1182,149Z" style="fill:rgb(52,19,19);stroke:black;strokeWidth:2.5px;"/>
        </g>
        <g id="dress" transform="matrix(0.0762141,0,0,0.0762141,-13.0008,-0.762724)">
            <path d="M2069,978C1927.77,888.331 1729.75,934.161 1481,1101C1458.54,1140.01 1447.19,1177.73 1508.5,1207C1612.54,1332 1574.85,1404.63 1439,1441C1201.06,1517.35 997.992,1620.71 831,1752C704.809,1762.97 605.891,1810.42 525,1882C468.742,1945.19 490.165,2010.94 582,2079C777.524,2259.73 977.111,2364.44 1180.5,2398C1384.68,2458.13 1600.58,2500.62 1811,2577L1875,2603C1896.56,2655.81 1932.12,2703.72 2001,2740C2029.62,2792 1999.82,2844 1959,2896C2020.97,2917.68 2071.34,2962.59 2110,3031C2249.12,2927.98 2365.22,2796.5 2453,2630C2494.71,2571.99 2495.49,2503.46 2446,2422C2433.59,2330.67 2301.82,2178.22 2151,2016C2018.31,1687.31 1994.9,1362.4 2160,1044L2069,978Z" style="fill:rgb(227,195,40);stroke:black;strokeWidth:3px;"/>
        </g>
        <g transform="matrix(0.0762141,0,0,0.0762141,-13.0008,-0.762724)">
            <path d="M567.214,1898.81L615.339,1981.98C1088.12,1941.98 1448.64,1772.82 1677.69,1452.39C1622.62,1512.63 1615.21,1370.31 1597.28,1275.62C1631.15,1398.49 1472.12,1652.07 1319.29,1749.78C1274.88,1730.49 1253.35,1680.93 1283.05,1563.56C1234.95,1661.74 1236.82,1724.21 1260.95,1770.78C1176.42,1743.49 1108.58,1704.2 1077.14,1638.75C1096.95,1714.56 1147.7,1761.63 1214.65,1793.65C1133.04,1771.42 1062.89,1732.61 1014.64,1662.1C1049.42,1739.88 1111.96,1788.22 1189.74,1820.41C1105.44,1803.83 1028.05,1776.95 980.214,1706.06C988.926,1773.79 1039.19,1814.56 1145.9,1818.68C818.149,1943.17 629.036,1967.14 567.214,1898.81Z" style="fill:rgb(189,161,30);"/>
        </g>
        <g transform="matrix(0.0762141,0,0,0.0762141,-13.0008,-0.762724)">
            <path d="M1472.71,1165.48C1480.63,1183.08 1491.42,1194.27 1508.5,1191.36L1579.64,1300.21C1600.84,1297.71 1541.63,1218.19 1558.72,1215.36C1581.7,1211.55 1622.62,1275.14 1646.48,1303.59C1659.67,1319.33 1576.34,1202.66 1610.36,1207.17C1628.64,1209.59 1742.53,1240.78 1791.82,1263.49C1848.85,1289.76 1843.08,1309.35 1883.03,1334.91C1901.53,1346.76 1877.22,1384.82 1887.07,1406.9C1885.69,1575.25 1791.99,1670.71 1683.09,1754.15C1803.66,1690.83 1908.58,1608.31 1943.87,1440.46L1994.88,1644.54C1947.17,1762.64 1869.03,1864.2 1770.51,1954.68L2015.09,1747.58L2031.29,1826.5C2062.04,2009.32 1937.29,2042.93 1805.37,2093.03C1924.57,2103.48 2033.94,2082.71 2090.71,1894.85C2006.16,1611.66 2008.86,1346.85 2123.06,1105.52L2055.97,1000.1C1779.71,940.003 1591.57,973.605 1476.63,1141.54" style="fill:rgb(189,161,30);"/>
        </g>
        <g id="minna-face-and-arm" serif:id="minna-face and arm" transform="matrix(0.0762141,0,0,0.0762141,-13.0008,-0.762724)">
            <path id="neck-minna" d="M1599.54,668.32C1584.66,673.12 1543.65,691.181 1530,700C1490.96,738.319 1469.21,698.672 1464.41,670.605C1462.15,657.429 1450.9,660.953 1446,661C1438.46,661.072 1432.52,655.419 1435,635C1421.48,626.762 1411.29,615.883 1408.45,604.976C1406.46,597.344 1402.26,593.279 1405,585C1387.08,577.452 1374.54,563.62 1386,539L1397,515C1386.5,508.14 1374,502.969 1366.45,481.138C1356.32,451.837 1370.57,397.457 1349.61,367L1477,329L1696,397L1766,526C1765.16,533.046 1763.98,539.931 1762.37,546.617C1852.83,666.74 1902.55,666.88 2030.02,648.219C2082.93,633.426 2132.32,643.195 2183,715.768C2203.55,747.676 2290.63,1051.34 2357.71,1104.6C2448.39,1176.59 2534.08,1327.58 2594,1460L2528,1525C2373.8,1396.26 2238.3,1257.61 2131,1104C2114.69,1073.31 2097.04,1036.95 2081.6,1003.71C1937.4,919.71 1836.18,934.632 1756,998L1555,863L1591.85,846.267L1573,818C1583.36,809.055 1599.21,796.131 1640,789.996C1631.01,709.526 1595.18,693.534 1555,688C1561.2,685.552 1593.64,670.771 1599.54,668.32Z" style="fill:rgb(243,189,150);stroke:black;strokeWidth:3px;"/>
        </g>
        <g transform="matrix(0.0762141,0,0,0.0762141,-13.0008,-0.762724)">
            <path d="M1405,585L1417.17,587.225" style="fill:none;stroke:black;strokeWidth:2.5px;"/>
        </g>
        <g id="ear-face-martin" serif:id="ear-face martin" transform="matrix(0.0762141,0,0,0.0762141,-13.0008,-0.762724)">
            <path d="M1038.54,400.706C1040.66,389.804 1043.15,378.902 1046,368C1040.24,262.844 1140.76,237.016 1163,210C1199.74,243.726 1242.77,262.453 1293,264C1313.84,289.455 1334.24,321.451 1348,452C1353.69,498.667 1343.62,545.333 1328,592C1299.87,679.83 1247.44,734.651 1135,708C1079.44,692.86 1041.53,639.267 1032.31,523.106C1012.68,522.908 1003.6,500.823 1003.18,462.384C995.797,387.069 1015.06,378.368 1038.54,400.706Z" style="fill:rgb(230,190,171);stroke:black;strokeWidth:1px;"/>
        </g>
        <g transform="matrix(0.0762141,0,0,0.0762141,-13.0008,-0.762724)">
            <path d="M1143.21,638.03C1155.71,643.844 1144.12,650.682 1131.57,658.27C1137.64,650.616 1163.75,651.785 1188.32,659.823C1205.52,668.859 1206.39,681.633 1199.21,705.048C1255.18,707.865 1286.34,678.325 1311.43,630.244C1327.02,604.283 1340.85,547.318 1346.68,508.662C1350.55,482.271 1349.74,457.131 1344.06,433.293L1334.32,453.002C1344.29,468.066 1344.35,490.046 1339.47,515.474C1323.05,514.643 1315.42,524.244 1316.17,543.8C1296.08,547.454 1290.93,565.869 1297.18,595.524C1284.15,587.707 1278.05,603.488 1275.51,631.413C1270.29,617.193 1265.06,616.348 1259.84,617.113C1249.22,623.741 1237.05,629.222 1224.37,633.336C1196.1,642.505 1165.26,644.882 1143.21,638.03Z" style="fill:rgb(176,132,111);fill-opacity:0.75;"/>
        </g>
        <g transform="matrix(0.0762141,0,0,0.0762141,-13.0008,-0.762724)">
            <path d="M1184.57,408.577C1190.2,430.482 1188.72,451.91 1179.82,472.841C1182.41,490.745 1178.03,507.584 1167.54,523.489L1175.59,544.797L1201.7,536.902L1214.6,538.636L1259.84,611.376L1277,644.056C1287.34,632.746 1287.37,628.067 1286.89,601.838L1296.76,598.977C1292.07,556.101 1299.97,545.041 1314.49,550.72C1318.06,526.042 1331.18,517.167 1341.34,521.701C1345.12,496.639 1352.41,471.18 1349.61,450.725C1343.68,431.545 1340.12,386.109 1336.52,375.946L1298.02,249.197L1244.84,253.219C1261.23,265.826 1271.56,282.4 1234.24,330.146C1229,365.214 1214.85,393.261 1184.57,408.577Z" style="fill:rgb(179,125,98);fill-opacity:0.47;"/>
        </g>
        <g transform="matrix(0.0762141,0,0,0.0762141,-13.0008,-0.762724)">
            <path d="M1076.48,414.481C1095.5,407.464 1118.08,406.916 1147.36,418.485C1164.43,424.639 1164.33,417.098 1163,408.577L1172.62,416.38C1165.98,422.045 1159.43,427.873 1157.46,442.438C1151.28,447.349 1148.58,454.679 1146.42,462.384C1135.44,469.359 1118.46,465.763 1104.75,462.384L1085.05,446.108L1069.44,452.801C1067.24,448.794 1071.83,443.598 1077.54,438.203L1098.6,429.128C1099.69,416.087 1089.91,413.528 1076.48,414.481Z" style="fill:rgb(179,125,98);fill-opacity:0.73;"/>
        </g>
        <g id="Martin-eye-1" transform="matrix(0.0762141,0,0,0.0762141,-13.0008,-0.762724)">
            <path d="M1225.8,449.713L1220.83,454.884L1226.87,451.915L1232.37,454.884L1231.33,462.384L1234.34,456.655L1238.94,458.921L1238.94,467.046L1240.66,459.355L1246.82,461.384L1246.82,470.149L1248.74,461.384L1254.74,461.384L1254.74,469.756L1257.51,461.384L1265.73,460.513L1266.92,467.48L1268.54,460.513L1275.43,458.654L1278.89,463.696L1277.48,457.447L1284.33,453.169L1287.59,461.384L1286.96,451.915" style="fill:none;stroke:black;strokeWidth:1px;"/>
            <g id="eye" transform="matrix(-0.998685,-0.0512622,-0.0512622,0.998685,2390.06,66.9665)">
                <g transform="matrix(0.809899,0.0264555,-0.0264555,0.809899,220.373,54.6593)">
                    <path d="M1072.97,435.956C1084.69,430.317 1096.41,427.078 1108.13,425.92C1124.22,424.331 1140.31,426.665 1156.4,432.098C1153.75,447.284 1139.61,453.659 1117.43,453.876C1096.52,455.624 1083.82,446.967 1072.97,435.956Z" style="fill:rgb(214,181,181);stroke:black;strokeWidth:1.85px;"/>
                </g>
                <g transform="matrix(0.810331,0,0,0.810331,208.257,83.9588)">
                    <path d="M1104.36,426.873C1097.66,434.702 1097.41,444.273 1103.3,453.041C1114.72,454.6 1122.5,454.865 1133.99,452.533C1138.71,443.227 1137.18,434.276 1131.54,426.071C1121.19,424.987 1114.51,424.894 1104.36,426.873Z"/>
                </g>
                <g transform="matrix(0.809899,0.0264555,-0.0264555,0.809899,220.373,54.6593)">
                    <path d="M1072.97,435.956C1084.69,430.317 1096.41,427.078 1108.13,425.92C1124.22,424.331 1140.31,426.665 1156.4,432.098C1153.75,447.284 1139.61,453.659 1117.43,453.876C1096.52,455.624 1083.82,446.967 1072.97,435.956Z" style="fill:none;stroke:black;strokeWidth:1.85px;"/>
                </g>
            </g>
            <g transform="matrix(1,0,0,1,179.898,-35.4458)">
                <path d="M1074.84,471.852L1075.42,480.327L1077.84,472.099L1076.55,480.515L1080.72,472.831L1077.61,480.884L1083.39,474.023L1078.58,481.421L1085.76,475.63L1079.41,482.107L1087.73,477.595L1080.08,482.916L1089.23,479.846L1080.55,483.819L1090.21,482.303L1080.82,484.784L1090.64,484.877L1080.88,485.776L1090.5,487.474L1080.71,486.759L1089.79,490L1080.34,487.697L1088.54,492.365L1079.76,488.557L1086.8,494.483L1079.01,489.308L1084.62,496.277L1078.11,489.922L1082.09,497.683L1077.09,490.377L1079.3,498.649L1075.99,490.657L1076.35,499.141L1074.84,490.751L1073.34,499.141L1073.7,490.657L1070.39,498.649L1072.6,490.377L1067.59,497.683L1071.58,489.922L1065.06,496.277L1070.67,489.308L1062.89,494.483L1069.92,488.557L1061.14,492.365L1069.35,487.697L1059.89,490L1068.97,486.759L1059.18,487.474L1068.81,485.776L1059.04,484.877L1068.86,484.784L1059.47,482.303L1069.13,483.819L1060.45,479.846L1069.61,482.916L1061.96,477.595L1070.28,482.107L1063.93,475.63L1071.11,481.421L1066.29,474.023L1072.07,480.884L1068.96,472.831L1073.14,480.515L1071.85,472.099L1074.27,480.327L1074.84,471.852Z" style="fill:white;fill-opacity:0.33;"/>
            </g>
            <g id="pupil-martin" transform="matrix(1.30892,0,0,1.27107,-204.644,-117.108)">
                <circle cx="1114.95" cy="445.819" r="6.259" style="fill:rgb(28,65,30);stroke:black;strokeWidth:1.55px;"/>
            </g>
            <path d="M1223.74,442.881C1244.87,447.218 1267.29,447.769 1291.28,445.988C1280.67,442.303 1269.62,439.272 1257.51,437.743C1242.5,437.948 1232.46,440.15 1223.74,442.881Z"/>
            <g transform="matrix(0.469211,0,0,0.5,680.995,246.008)">
                <ellipse cx="1209.32" cy="408.085" rx="6.069" ry="5.27" style="fill:white;fill-opacity:0.69;"/>
            </g>
        </g>
        <g id="martin-eye-2" transform="matrix(0.0762141,0,0,0.0762141,-13.0008,-0.762724)">
            <path d="M1081.43,443.317L1079.59,451.124L1083.24,443.871L1087.03,447.416L1085.25,453.51L1088.63,447.416L1092.3,450.714L1091.48,454.884L1092.3,450.714L1098.36,452.772L1098.36,459.083L1100.6,453.118L1105.97,454.884L1105.97,459.024L1108.82,454.884L1114.16,454.884L1114.16,460.275L1116.42,454.884L1120.89,454.884L1123.31,460.513L1124.11,454.884L1129.96,453.128L1129.96,458.887L1129.96,452.354L1135.18,450.945L1140.05,457.516L1138.51,449.788L1141.16,447.416L1147.75,450.488L1143.25,444.231" style="fill:none;stroke:black;strokeWidth:1px;"/>
            <g id="eye1" serif:id="eye" transform="matrix(1,0,0,1,0,3)">
                <g transform="matrix(0.809899,0.0264555,-0.0264555,0.809899,220.373,54.6593)">
                    <path d="M1072.97,435.956C1084.69,430.317 1096.41,427.078 1108.13,425.92C1124.22,424.331 1140.31,426.665 1156.4,432.098C1153.75,447.284 1139.61,453.659 1117.43,453.876C1096.52,455.624 1083.82,446.967 1072.97,435.956Z" style="fill:rgb(204,221,193);stroke:black;strokeWidth:1.85px;"/>
                </g>
                <g transform="matrix(0.810331,0,0,0.810331,208.257,83.9588)">
                    <path d="M1104.36,426.873C1097.66,434.702 1097.41,444.273 1103.3,453.041C1114.72,454.6 1122.5,454.865 1133.99,452.533C1138.71,443.227 1137.18,434.276 1131.54,426.071C1121.19,424.987 1114.51,424.894 1104.36,426.873Z"/>
                </g>
                <g transform="matrix(0.809899,0.0264555,-0.0264555,0.809899,220.373,54.6593)">
                    <path d="M1072.97,435.956C1084.69,430.317 1096.41,427.078 1108.13,425.92C1124.22,424.331 1140.31,426.665 1156.4,432.098C1153.75,447.284 1139.61,453.659 1117.43,453.876C1096.52,455.624 1083.82,446.967 1072.97,435.956Z" style="fill:none;stroke:black;strokeWidth:1.85px;"/>
                </g>
            </g>
            <g transform="matrix(1,0,0,1,39.3185,-41.6256)">
                <path d="M1074.84,471.852L1075.42,480.327L1077.84,472.099L1076.55,480.515L1080.72,472.831L1077.61,480.884L1083.39,474.023L1078.58,481.421L1085.76,475.63L1079.41,482.107L1087.73,477.595L1080.08,482.916L1089.23,479.846L1080.55,483.819L1090.21,482.303L1080.82,484.784L1090.64,484.877L1080.88,485.776L1090.5,487.474L1080.71,486.759L1089.79,490L1080.34,487.697L1088.54,492.365L1079.76,488.557L1086.8,494.483L1079.01,489.308L1084.62,496.277L1078.11,489.922L1082.09,497.683L1077.09,490.377L1079.3,498.649L1075.99,490.657L1076.35,499.141L1074.84,490.751L1073.34,499.141L1073.7,490.657L1070.39,498.649L1072.6,490.377L1067.59,497.683L1071.58,489.922L1065.06,496.277L1070.67,489.308L1062.89,494.483L1069.92,488.557L1061.14,492.365L1069.35,487.697L1059.89,490L1068.97,486.759L1059.18,487.474L1068.81,485.776L1059.04,484.877L1068.86,484.784L1059.47,482.303L1069.13,483.819L1060.45,479.846L1069.61,482.916L1061.96,477.595L1070.28,482.107L1063.93,475.63L1071.11,481.421L1066.29,474.023L1072.07,480.884L1068.96,472.831L1073.14,480.515L1071.85,472.099L1074.27,480.327L1074.84,471.852Z" style="fill:white;fill-opacity:0.33;"/>
            </g>
            <g id="pupil-martin1" serif:id="pupil-martin" transform="matrix(1.30892,0,0,1.27107,-345.223,-123.344)">
                <circle cx="1114.95" cy="445.819" r="6.259" style="fill:rgb(28,65,30);stroke:black;strokeWidth:1.55px;"/>
            </g>
            <path d="M1077.84,438.767C1097.54,439.701 1119.77,439.632 1145.51,437.743C1136.16,434.431 1126.02,432.076 1114.16,431.751C1097.45,432.534 1086.63,435.309 1077.84,438.767Z"/>
            <g transform="matrix(1.27309,0,0,1.3978,-299.049,-172.261)">
                <ellipse cx="1105.87" cy="441.045" rx="2.241" ry="2.279" style="fill:rgb(170,170,170);"/>
            </g>
        </g>
        <g id="Martin-hand" transform="matrix(0.0762141,0,0,0.0762141,-13.0008,-0.762724)">
            <path d="M2501.34,1422.13C2548.44,1424.07 2596.95,1428.84 2657.96,1458.57C2692.51,1459.69 2721.41,1478.22 2740.19,1494.74C2793.72,1511.56 2796.85,1521.64 2829.25,1535.03C2839.82,1539.41 2842.25,1553.34 2827.64,1557.19C2775.13,1541.8 2694.58,1518.11 2694.27,1521.65C2693.59,1529.35 2757.14,1558.1 2791.28,1563.87C2817.76,1568.35 2843.26,1575.52 2852.74,1582C2864.62,1590.12 2863.33,1606.95 2843.92,1605.27L2773.88,1592.13L2675.15,1581.97L2833.36,1617.5C2853.74,1628.67 2843.42,1644.56 2829.86,1645.43L2662.32,1625.15L2812.44,1654.27C2833.23,1662.85 2833.79,1679.49 2808.91,1683.8L2704.02,1691.78L2581.52,1667.72C2529.89,1638.58 2486.55,1600.66 2448.45,1557.19L2501.34,1422.13Z" style="fill:rgb(221,180,159);stroke:black;strokeWidth:2px;"/>
            <g transform="matrix(1.23939,1.32242,-0.986803,0.924843,2690.77,-686.674)">
                <path d="M942.098,1054.97C940.962,1058.45 941.535,1060.02 942.552,1060.84C942.855,1061.08 943.197,1061.26 943.546,1061.4C950.357,1059.39 953.055,1056.58 954.311,1051.84C952.933,1048.91 948.793,1048.7 942.098,1054.97Z" style="fill:rgb(221,180,159);stroke:black;strokeWidth:1.25px;"/>
            </g>
            <g transform="matrix(1.23939,1.32242,-0.986803,0.924843,2710.83,-640.198)">
                <path d="M942.098,1054.97C940.962,1058.45 941.535,1060.02 942.552,1060.84C942.855,1061.08 945.095,1060.71 945.444,1060.85C952.255,1058.84 953.024,1057.67 954.281,1052.92C953.72,1046.39 945.421,1046.35 942.098,1054.97Z" style="fill:rgb(221,180,159);stroke:black;strokeWidth:1.25px;"/>
            </g>
            <g transform="matrix(1.23939,1.32242,-0.986803,0.924843,2695.2,-598.124)">
                <path d="M939.964,1055.35C938.828,1058.84 941.535,1060.02 942.552,1060.84C942.855,1061.08 943.197,1061.26 943.546,1061.4C950.357,1059.39 951.603,1054.42 952.86,1049.67C948.427,1045.21 942.114,1046.81 939.964,1055.35Z" style="fill:rgb(221,180,159);stroke:black;strokeWidth:1.25px;"/>
            </g>
            <g transform="matrix(1.23939,1.32242,-0.986803,0.924843,2676.62,-561.135)">
                <path d="M942.098,1054.97C940.962,1058.45 941.535,1060.02 942.552,1060.84C942.855,1061.08 943.197,1061.26 943.546,1061.4C947.735,1060.16 952.665,1057.35 954.053,1054.13C954.921,1052.11 952.76,1049.84 953.244,1048.01C951.865,1045.09 944.73,1046.9 942.098,1054.97Z" style="fill:rgb(221,180,159);stroke:black;strokeWidth:1.25px;"/>
            </g>
        </g>
        <g id="sleeve" transform="matrix(0.0762141,0,0,0.0762141,-13.0008,-0.762724)">
            <path d="M1772.45,950C1893.72,1008 2007.67,1077.63 2118,1153C2224.73,1206.87 2324.57,1269.86 2419,1340C2455.63,1379.35 2491.81,1400.13 2528,1421L2458,1582C2423.8,1557.72 2375.19,1528.81 2302,1492C2162.85,1451.57 2030.16,1393.52 1905,1315C1857.25,1274.15 1800.35,1241.68 1724,1227C1581.47,1182.77 1498.12,1140.95 1461,1101C1483.56,1076.16 1411.77,965.318 1417.5,932.956C1425.37,888.486 1480.15,806.994 1508.5,792.831C1559.77,767.213 1758.42,922.93 1772.45,950Z" style="fill:rgb(73,62,83);"/>
        </g>
        <g id="Minna-hair" transform="matrix(0.0762141,0,0,0.0762141,-13.0008,-0.762724)">
            <path d="M1715,462.384C1711.96,385.386 1670.62,408.995 1646,473L1637,489C1625.33,498.202 1613.67,493.972 1602,479C1583.55,426.594 1543.46,413.233 1495,415C1480.74,351.798 1453.36,342.344 1417.17,369C1389.78,391.368 1362.39,390.265 1335,372C1309.62,352.854 1303.13,334.26 1308,316C1323.35,204.816 1368.7,164.235 1417.17,131C1436.99,99.263 1478.58,68.644 1521.5,82C1671.09,59.193 1742.63,96.454 1787,210C1895.84,227.226 1901.97,294.276 1886,351C1881.41,413.936 1858.05,466.527 1800,500C1818.03,535.033 1816.4,566.758 1800,596C1756.7,568.238 1734.06,521.759 1715,462.384Z" style="fill:rgb(153,55,53);stroke:black;strokeWidth:2.5px;"/>
        </g>
        <g transform="matrix(0.0762141,0,0,0.0762141,-13.0008,-0.762724)">
            <path d="M1210.37,123.89C1195.9,142.373 1183.51,165.938 1178.5,207.488C1200.99,229.547 1241.73,242.275 1288.68,251.821C1243.72,236.273 1198.63,220.748 1198.57,197.075L1241.55,198.26C1217.77,193.039 1208.18,186.785 1209.63,179.727C1212.02,169.885 1223.8,168.51 1244.13,174.843L1209.89,156.698L1235.51,156.698L1212.23,141.306L1240.78,143.52C1228.86,127.625 1264.3,147.128 1287.46,157.456C1261.76,136.934 1236.07,121.336 1210.37,123.89Z" style="fill:rgb(121,77,76);"/>
        </g>
        <g id="hand-minna-1" transform="matrix(0.128647,0,0,0.128647,-56.7946,-57.339)">
            <path d="M884,1070L944.285,1047.77C966.758,1042.4 960.195,1062.54 950.367,1064.65C928.975,1075.78 917.545,1084.33 889,1096C934.181,1073.78 914.733,1087.15 963.534,1071.2C978.399,1066.34 984.308,1074.78 969.509,1087.33C952.197,1090.37 943.882,1101.03 935.614,1102.26C920.062,1104.57 907.654,1113.6 894,1122C905.947,1118.53 917.374,1112.21 929.858,1108.63C939.452,1105.88 949.975,1105.89 959.981,1103.06C967.039,1100.51 972.854,1114.9 961.02,1121.25C938.365,1124.01 923.406,1136.7 904,1153L904.941,1157L929.66,1144.99C957.229,1123.64 951.588,1145.73 939.889,1159.15C919.157,1182.93 921.282,1174.8 899.831,1183.21C885.507,1177.41 870.869,1181.47 869,1174C862.069,1160.04 858.782,1147.5 864,1139C858.145,1125.4 857.218,1112.9 865,1103C863.073,1088.95 869.753,1078.07 884,1070Z" style="fill:rgb(243,189,150);stroke:black;strokeWidth:1.18px;"/>
            <path d="M939.573,1052.32L943.546,1061.4C950.357,1059.39 955.009,1056.31 956.266,1051.57C954.888,1048.64 949.031,1048.03 939.573,1052.32Z" style="fill:rgb(155,22,22);stroke:black;strokeWidth:1.18px;"/>
            <g transform="matrix(1,0,0,1,19.6552,23.2908)">
                <path d="M939.573,1052.32L943.546,1061.4C950.357,1059.39 955.009,1056.31 956.266,1051.57C954.888,1048.64 949.031,1048.03 939.573,1052.32Z" style="fill:rgb(155,22,22);stroke:black;strokeWidth:1.18px;"/>
            </g>
            <g transform="matrix(1,0,0,1,10.1252,55.4618)">
                <path d="M939.573,1052.32L943.546,1061.4C950.357,1059.39 953.055,1056.58 954.311,1051.84C952.933,1048.91 949.031,1048.03 939.573,1052.32Z" style="fill:rgb(155,22,22);stroke:black;strokeWidth:1.18px;"/>
            </g>
            <g transform="matrix(1.03446,-0.558751,0.47645,0.882092,-539.346,744.389)">
                <path d="M940.811,1052.88L942.008,1059.41C947.222,1054.38 951.441,1056.04 952.632,1051.25C951.254,1048.33 950.269,1048.59 940.811,1052.88Z" style="fill:rgb(155,22,22);stroke:black;strokeWidth:1.08px;"/>
            </g>
        </g>
        <g id="Hand-minna-2" transform="matrix(-0.0127388,-0.137544,0.137544,-0.0127388,49.5577,263.432)">
            <path d="M884,1070L944.285,1047.77C966.758,1042.4 960.195,1062.54 950.367,1064.65C928.975,1075.78 917.545,1084.33 889,1096C934.181,1073.78 914.733,1087.15 963.534,1071.2C978.399,1066.34 984.308,1074.78 969.509,1087.33C952.197,1090.37 943.882,1101.03 935.614,1102.26C920.062,1104.57 907.654,1113.6 894,1122C905.947,1118.53 917.374,1112.21 929.858,1108.63C939.452,1105.88 949.975,1105.89 959.981,1103.06C967.039,1100.51 972.854,1114.9 961.02,1121.25C950.583,1122.52 941.779,1125.9 933.422,1130.77C923.638,1136.47 914.466,1144.21 904,1153L904.941,1157L931.968,1144.99C961.17,1125.58 962.237,1149.57 940.506,1155.74C910.154,1164.36 920.158,1170.15 898.708,1178.55C884.383,1172.76 870.869,1181.47 869,1174C862.069,1160.04 858.782,1147.5 864,1139C858.145,1125.4 857.218,1112.9 865,1103C863.073,1088.95 869.753,1078.07 884,1070Z" style="fill:rgb(243,189,150);stroke:black;strokeWidth:1.1px;"/>
            <path d="M939.573,1052.32L943.546,1061.4C950.357,1059.39 955.009,1056.31 956.266,1051.57C954.888,1048.64 949.031,1048.03 939.573,1052.32Z" style="fill:rgb(155,22,22);stroke:black;strokeWidth:1.1px;"/>
            <g transform="matrix(1,0,0,1,19.6552,23.2908)">
                <path d="M939.573,1052.32L943.546,1061.4C950.357,1059.39 955.009,1056.31 956.266,1051.57C954.888,1048.64 949.031,1048.03 939.573,1052.32Z" style="fill:rgb(155,22,22);stroke:black;strokeWidth:1.1px;"/>
            </g>
            <g transform="matrix(1,0,0,1,10.1252,55.4618)">
                <path d="M939.573,1052.32L943.546,1061.4C950.357,1059.39 953.055,1056.58 954.311,1051.84C952.933,1048.91 949.031,1048.03 939.573,1052.32Z" style="fill:rgb(155,22,22);stroke:black;strokeWidth:1.1px;"/>
            </g>
            <g transform="matrix(1.19617,0.0166754,0.171368,0.987788,-367.585,88.8458)">
                <path d="M940.811,1052.88L942.008,1059.41C947.222,1054.38 951.441,1056.04 952.632,1051.25C951.254,1048.33 950.269,1048.59 940.811,1052.88Z" style="fill:rgb(155,22,22);stroke:black;strokeWidth:0.92px;"/>
            </g>
        </g>
        <g id="buttons" transform="matrix(0.0762141,0,0,0.0762141,-13.0008,-0.762724)">
            <g transform="matrix(1.20098,0,0,0.682613,-242.923,259.028)">
                <ellipse cx="1150.42" cy="824.97" rx="7.963" ry="13.874" style="fill:rgb(45,16,72);stroke:black;strokeWidth:0.56px;"/>
            </g>
            <g transform="matrix(1.20098,0,0,0.682613,-291.287,347.733)">
                <ellipse cx="1150.42" cy="824.97" rx="7.963" ry="13.874" style="fill:rgb(45,16,72);stroke:black;strokeWidth:0.56px;"/>
            </g>
            <g transform="matrix(1.20098,0,0,0.682613,-331.703,444.892)">
                <ellipse cx="1150.42" cy="824.97" rx="7.963" ry="13.874" style="fill:rgb(45,16,72);stroke:black;strokeWidth:0.56px;"/>
            </g>
            <g transform="matrix(1.20098,0,0,0.682613,-402.021,712.284)">
                <ellipse cx="1150.42" cy="824.97" rx="7.963" ry="13.874" style="fill:rgb(45,16,72);stroke:black;strokeWidth:0.56px;"/>
            </g>
            <g transform="matrix(1.20098,0,0,0.682613,-418.189,821.731)">
                <ellipse cx="1150.42" cy="824.97" rx="7.963" ry="13.874" style="fill:rgb(45,16,72);stroke:black;strokeWidth:0.56px;"/>
            </g>
            <g transform="matrix(1.20098,0,0,0.682613,-437.317,944.315)">
                <ellipse cx="1150.42" cy="824.97" rx="7.963" ry="13.874" style="fill:rgb(45,16,72);stroke:black;strokeWidth:0.56px;"/>
            </g>
            <g transform="matrix(1.20098,0,0,0.682613,-454.261,1084.62)">
                <ellipse cx="1150.42" cy="824.97" rx="7.963" ry="13.874" style="fill:rgb(45,16,72);stroke:black;strokeWidth:0.56px;"/>
            </g>
        </g>
        <g transform="matrix(0.0762141,0,0,0.0762141,-13.0008,-0.762724)">
            <path d="M1158.17,586.436C1153.81,575.508 1151.96,566.566 1158.57,564.313C1167.87,575.781 1182.1,566.086 1193.26,550.535C1213.08,560.83 1221.06,563.955 1221.72,551.788C1235.24,567.552 1246.76,589.632 1259.84,611.376C1233.24,597.338 1208.96,590.194 1187.23,590.621C1184.42,589.788 1180.62,584.629 1175.59,574.062C1164.31,573.063 1160.35,578.914 1158.17,586.436Z" style="fill:rgb(130,84,62);fill-opacity:0.42;"/>
        </g>
        <g transform="matrix(0.0762141,0,0,0.0762141,-13.0008,-0.762724)">
            <path d="M1398.91,396.095C1395.32,412.219 1395.85,428.344 1402.51,444.469L1433.68,460.308C1439.06,439.076 1461.14,437.641 1491.81,446.394L1467.62,433.592L1471.26,418.875C1476.22,402.889 1472.77,396.738 1466.29,394.118C1450.25,397.839 1434.34,401.774 1425.07,417.086L1398.91,396.095Z" style="fill:rgb(240,213,201);fill-opacity:0.85;"/>
        </g>
        <g id="eye-minna" transform="matrix(0.074762,-0.0148068,0.0148068,0.074762,-17.7168,21.5724)">
            <path id="eye-minna1" serif:id="eye-minna" d="M1432.16,463.689C1448.99,439.969 1470.43,442.851 1494.09,458.542C1489.67,467.718 1479.19,473.808 1463.91,477.462C1452.09,478.56 1441.57,473.705 1432.16,463.689" style="fill:rgb(220,192,192);stroke:black;strokeWidth:2.5px;"/>
            <path d="M1441.95,453.174C1439.3,459.895 1440.39,466.423 1443.42,472.851C1451.64,477.736 1460.22,479.127 1469.26,475.992C1472.35,465.058 1472.96,455.147 1468.67,447.259C1459.2,445.306 1450.18,446.503 1441.95,453.174Z" style="fill:rgb(25,25,25);stroke:black;strokeWidth:1px;"/>
            <g transform="matrix(1.51142,0.299341,-0.299341,1.51142,-606.225,-683.536)">
                <path d="M1458.22,459.931L1458.58,465.486L1460.07,460.14L1459.27,465.645L1461.82,460.759L1459.91,465.956L1463.41,461.757L1460.47,466.403L1464.75,463.089L1460.93,466.967L1465.79,464.692L1461.26,467.621L1466.48,466.491L1461.45,468.334L1466.78,468.402L1461.49,469.072L1466.68,470.336L1461.38,469.802L1466.18,472.202L1461.12,470.489L1465.31,473.913L1460.72,471.102L1464.12,475.389L1460.2,471.61L1462.64,476.561L1459.6,471.992L1460.96,477.374L1458.93,472.228L1459.15,477.79L1458.22,472.308L1457.3,477.79L1457.52,472.228L1455.49,477.374L1456.85,471.992L1453.81,476.561L1456.24,471.61L1452.33,475.389L1455.73,471.102L1451.13,473.913L1455.33,470.489L1450.27,472.202L1455.07,469.802L1449.77,470.336L1454.96,469.072L1449.67,468.402L1455,468.334L1449.97,466.491L1455.18,467.621L1450.66,464.692L1455.52,466.967L1451.69,463.089L1455.97,466.403L1453.04,461.757L1456.54,465.956L1454.63,460.759L1457.18,465.645L1456.38,460.14L1457.87,465.486L1458.22,459.931Z" style="fill:white;fill-opacity:0.35;"/>
            </g>
            <g transform="matrix(0.472799,0,-2.48738e-17,0.450504,767.733,253.43)">
                <path d="M1441.95,453.174C1439.3,459.895 1440.39,466.423 1443.42,472.851C1450.56,483.526 1459.31,484.001 1469.26,475.992C1476.5,465.748 1475.84,455.626 1468.67,447.259C1459.2,445.306 1450.18,446.503 1441.95,453.174Z" style="fill:rgb(19,65,21);"/>
            </g>
            <g transform="matrix(0.253171,6.56141e-18,-2.11143e-17,0.241233,1087.74,350.394)">
                <path d="M1441.95,453.174C1439.3,459.895 1440.39,466.423 1443.42,472.851C1450.56,483.526 1459.31,484.001 1469.26,475.992C1476.5,465.748 1475.84,455.626 1468.67,447.259C1459.2,445.306 1450.18,446.503 1441.95,453.174Z" style="fill-opacity:0.62;"/>
            </g>
            <g transform="matrix(0.980946,0.194279,-0.194279,0.980946,124.604,-279.247)">
                <ellipse cx="1447.47" cy="470.575" rx="3.196" ry="2.765" style="fill:white;fill-opacity:0.4;"/>
            </g>
            <path id="eye-minna2" serif:id="eye-minna" d="M1432.16,463.689C1448.99,439.969 1470.43,442.851 1494.09,458.542C1489.67,467.718 1479.19,473.808 1463.91,477.462C1452.09,478.56 1441.57,473.705 1432.16,463.689" style="fill:none;stroke:black;strokeWidth:2.5px;"/>
            <g transform="matrix(0.980946,0.194279,-0.194279,0.980946,117.634,-275.452)">
                <path d="M1436.61,472.016L1435.27,483.31L1438.32,473.687L1443.13,475.285L1442.37,482.511L1444.96,476.201L1450.39,478.434L1450.73,485.971L1452.9,478.434L1458.28,478.434L1458.38,486.113L1460.15,478.434L1468.21,476.535L1470.24,484.751L1470.55,475.202L1476.2,472.411L1480.72,478.434L1479.08,469.781L1482.7,467.6L1490.29,473.878L1484.9,466.066L1488.97,462.344L1496.64,466.946L1491.07,457.885C1474.64,480.276 1456.41,484.113 1436.61,472.016Z" style="stroke:black;strokeWidth:0.6px;"/>
            </g>
            <g transform="matrix(0.980946,0.194279,-0.194279,0.980946,117.634,-275.452)">
                <path d="M1433.08,469.781C1440.77,465.75 1449.25,461.793 1458.97,458.728C1468.83,455.621 1479.96,453.429 1492.83,453.004C1481.03,447.647 1469.24,445.123 1457.44,446.254C1442.55,452.13 1437,460.718 1433.08,469.781Z"/>
            </g>
        </g>
        <g id="eye-minna3" serif:id="eye-minna" transform="matrix(0.0464755,-0.0126105,0.0126105,0.0464755,19.4901,32.8754)">
            <path id="eye-minna4" serif:id="eye-minna" d="M1432.16,463.689C1444.95,445.668 1458.7,442.684 1475.81,449.194C1476.6,449.495 1477.15,455.092 1477.03,455.136C1476.97,455.155 1477.21,461.143 1477.21,461.223C1477.19,463.599 1479.19,473.808 1463.91,477.462C1452.09,478.56 1441.57,473.705 1432.16,463.689" style="fill:rgb(220,192,192);stroke:black;strokeWidth:3.17px;"/>
            <path d="M1441.95,453.174C1439.3,459.895 1440.39,466.423 1443.42,472.851C1451.64,477.736 1460.22,479.127 1469.26,475.992C1472.35,465.058 1472.96,455.147 1468.67,447.259C1459.2,445.306 1450.18,446.503 1441.95,453.174Z" style="fill:rgb(25,25,25);stroke:black;strokeWidth:1.58px;"/>
            <g transform="matrix(1.76694,0.479436,-0.479436,1.76694,-896.124,-1065.7)">
                <path d="M1458.22,459.931L1458.69,465.501L1460.64,460.294L1459.58,465.775L1462.86,461.353L1460.37,466.302L1464.7,463.022L1460.98,467.038L1466.02,465.167L1461.36,467.923L1466.7,467.612L1461.5,468.887L1466.7,470.162L1461.36,469.851L1466.02,472.607L1460.98,470.736L1464.7,474.752L1460.37,471.472L1462.86,476.421L1459.58,471.999L1460.64,477.48L1458.69,472.273L1458.22,477.843L1457.76,472.273L1455.81,477.48L1456.87,471.999L1453.59,476.421L1456.08,471.472L1451.75,474.752L1455.47,470.736L1450.43,472.607L1455.09,469.851L1449.75,470.162L1454.95,468.887L1449.75,467.612L1455.09,467.923L1450.43,465.167L1455.47,467.038L1451.75,463.022L1456.08,466.302L1453.59,461.353L1456.87,465.775L1455.81,460.294L1457.76,465.501L1458.22,459.931Z" style="fill:white;fill-opacity:0.22;"/>
            </g>
            <g transform="matrix(0.418721,-2.77556e-17,-4.16334e-17,0.491415,845.664,234.777)">
                <path d="M1441.95,453.174C1438.53,458.911 1437.69,462.75 1443.42,472.851C1450.67,479.592 1458.6,482.222 1469.26,475.992C1479.13,464.99 1477.58,455.101 1468.67,447.259C1459.2,445.306 1450.18,446.503 1441.95,453.174Z" style="fill:rgb(19,65,21);"/>
            </g>
            <g transform="matrix(0.22026,0.00801398,-0.00940528,0.258499,1139.02,330.666)">
                <path d="M1441.95,453.174C1438.53,458.911 1437.69,462.75 1443.42,472.851C1450.67,479.592 1458.6,482.222 1469.26,475.992C1479.13,464.99 1477.58,455.101 1468.67,447.259C1459.2,445.306 1450.18,446.503 1441.95,453.174Z" style="fill-opacity:0.66;"/>
            </g>
            <g transform="matrix(0.750852,0.203734,-0.203734,0.750852,460.232,-185.345)">
                <ellipse cx="1447.47" cy="470.575" rx="3.196" ry="2.765" style="fill:white;fill-opacity:0.4;"/>
            </g>
            <path id="eye-minna5" serif:id="eye-minna" d="M1432.16,463.689C1444.95,445.668 1458.7,442.684 1475.81,449.194C1476.6,449.495 1477.15,455.092 1477.03,455.136C1476.97,455.155 1477.21,461.143 1477.21,461.223C1477.19,463.599 1479.19,473.808 1463.91,477.462C1452.09,478.56 1441.57,473.705 1432.16,463.689" style="fill:none;stroke:black;strokeWidth:3.17px;"/>
            <g transform="matrix(1.52742,0.414447,-0.414447,1.52742,-468.235,-850.831)">
                <path d="M1376.37,487.152C1382.62,480.4 1390.66,475.932 1402.31,474.513C1401.59,470.526 1397.82,469.09 1387.84,472.85C1381.38,476.635 1378.24,481.656 1376.37,487.152Z"/>
            </g>
        </g>
        <g id="Minna-face-details" transform="matrix(0.0762141,0,0,0.0762141,-13.0008,-0.762724)">
            <path d="M1675.27,455.608C1700.97,448.346 1705.43,456.399 1670.97,492.528" style="fill:none;stroke:black;strokeWidth:2.5px;"/>
            <path d="M1661.1,526.686C1690.93,537.944 1708.86,514.906 1714.2,455.608" style="fill:none;stroke:black;strokeWidth:2.5px;"/>
            <path d="M1367.65,478.387C1369.67,466.213 1372.51,455.995 1389.18,455.608" style="fill:none;stroke:black;strokeWidth:2.5px;"/>
            <g transform="matrix(1,0,0,1,0.275292,0.647451)">
                <path d="M1422.95,443.821C1437.39,426.802 1463.27,425.507 1499.39,438.277" style="fill:none;stroke:black;strokeWidth:2.5px;"/>
            </g>
            <path id="nose-minna-3" d="M1447.82,578.646C1461.79,567.192 1465.21,555.546 1457.19,543.693" style="fill:none;stroke:black;strokeWidth:1.5px;"/>
            <path d="M1389.18,455.608C1408.11,470.971 1409.9,490.643 1397.92,513.774" style="fill:none;stroke:black;strokeWidth:2.5px;"/>
            <path id="nose-minna-1" d="M1409.84,570.813C1418.73,566.246 1427.63,566.795 1436.52,572.461" style="fill:none;stroke:black;strokeWidth:4px;"/>
        </g>
        <g id="Martin-face-details" transform="matrix(0.0762141,0,0,0.0762141,-13.0008,-0.762724)">
            <g id="nose" transform="matrix(1,0,0,1,7.0629,-1.73861)">
                <path d="M1151.32,508.468C1126.24,529.701 1113.21,545.119 1137.17,542.716C1155.51,572.406 1165.1,578.187 1178.76,558.053C1192.75,537.43 1206.4,571.56 1209.62,555.942C1215.78,544.359 1212.3,534.573 1198.7,526.669" style="fill:none;stroke:black;strokeWidth:1px;"/>
            </g>
            <g id="mouth" transform="matrix(1,0,0,1,11.1901,0.182151)">
                <path d="M1097.41,622.863C1113.4,605.319 1130.95,595.648 1150.02,593.669C1160.11,601.946 1168.37,601.107 1175.59,595.187C1200.54,597.905 1223.28,604.73 1243.98,615.354C1194.1,641.317 1145.14,646.124 1097.41,622.863Z" style="fill:rgb(173,83,83);stroke:black;strokeWidth:1px;"/>
            </g>
            <path d="M1116.6,622.924C1157.65,619.082 1204.19,616.54 1245.24,617.582C1235.94,624.576 1214.57,629.107 1175.59,632.976C1152,633.299 1128.37,631.192 1116.6,622.924Z" style="fill:rgb(186,111,111);"/>
            <path d="M1116.6,621.391C1127.39,612.052 1138.8,603.106 1159.4,599.954C1169.18,605.171 1178.77,605.05 1188.15,598.858C1219.99,604.111 1236.31,609.9 1245.24,615.944C1202.21,613.635 1159.3,614.603 1116.6,621.391Z" style="fill:rgb(130,64,64);"/>
            <path id="eyebrow-1" d="M1061.51,411.279C1094.1,392.406 1125.58,397.318 1156.4,416.381" style="fill:none;stroke:black;strokeWidth:1.5px;"/>
            <path id="eyebrow-2" d="M1216.89,424.248C1244.87,407.346 1277.18,407.963 1311.43,416.381" style="fill:none;stroke:black;strokeWidth:1.5px;"/>
        </g>
        <g id="mouth-minna" transform="matrix(0.0762141,0,0,0.0762141,-13.0008,-0.762724)">
            <path d="M1417.17,620.31C1424.28,621.917 1422.98,626.867 1426.23,615.944C1445.71,609.14 1474.4,603.803 1497.2,607.869C1490.86,632.307 1479.14,653.329 1444.04,659.496C1434.1,659.181 1432.4,648.808 1434.75,633.496L1417.17,620.31Z" style="fill:rgb(205,51,51);stroke:black;strokeWidth:1px;"/>
        </g>
        <g transform="matrix(0.0762141,0,0,0.0762141,-13.0008,-0.762724)">
            <path d="M1424.84,620.407L1450.58,612.594C1464.1,610.018 1477.62,608.55 1491.14,611.23L1480.65,618.202L1439.49,632.976C1430.2,628.384 1425.59,624.218 1424.84,620.407Z" style="fill:rgb(143,46,46);"/>
        </g>
        <g transform="matrix(0.0762141,0,0,0.0762141,-13.0008,-0.762724)">
            <path d="M1353.05,976.211L1353.05,1037.55C1498.29,1132.34 1535.81,1173.03 1799.41,1249.91C1954.92,1353.43 2122.21,1440.96 2314.25,1494.89L2454.63,1582L2467.4,1499.52C2465.05,1433.77 2424.54,1418.91 2348.47,1451.44L2311.22,1430.32C2317.29,1465.68 2289.23,1463.36 2246.5,1444.85L2207.23,1443.97C2253.11,1424.7 2246.09,1354.2 2204.19,1249.91L2172.3,1427.35L2153.75,1418.52C2164.91,1363.98 2165.43,1309.43 2132.68,1254.88L2104.24,1338.13L2132.66,1389.14L2066.3,1376.9L2089.7,1254.88C2070.3,1257.5 2057.41,1275.38 2051.55,1309.82L2003.12,1328.48L2023.26,1230.05C1991.31,1234.4 1965.77,1248.74 1971.8,1312.36L1921.43,1285.77C1909.49,1261.75 1920.56,1237.73 1937,1213.71L1878.32,1287.45C1862.91,1263.99 1862.08,1225.13 1881.83,1164.55L1835.07,1249.91L1809.87,1254.88L1938.41,1083.98C1886.66,1137.77 1831.67,1187.38 1755.19,1209.28C1722.51,1191.21 1708.95,1174.12 1707.7,1157.65C1717.73,1132.2 1779.55,1094.79 1860.37,1052.99C1760.44,1092.56 1685.77,1104.66 1488.91,1071.51C1564.17,1014.89 1520.44,1001.43 1401.07,1015.4C1446.53,961.829 1560.79,979.426 1686.48,1008.86C1690.46,955.168 1715.3,894.756 1452.7,927C1431.57,866.208 1388.82,892.048 1355.88,909.617L1353.05,976.211Z" style="fill:rgb(41,29,48);"/>
        </g>
        <g transform="matrix(0.0762141,0,0,0.0762141,-13.0008,-0.762724)">
            <path d="M543.097,2199.91C396.036,2295.03 333.941,2453.62 326.449,2653.01L340.838,3418.81L461.489,3195.66L367.708,3258.53L426.527,3031L377.664,3122.9C376.157,3005.57 401.988,2900.14 452.402,2822.27L381.366,2901.05C334.534,2767.34 347.005,2729.67 384.793,2732.99C346.236,2581.03 341.835,2494.84 427.911,2582.85C455.792,2243.78 525.543,2234.91 622.393,2439.76L543.097,2199.91Z" style="fill:rgb(122,150,201);stroke:black;strokeWidth:0.6px;"/>
        </g>
        <g transform="matrix(0.0762141,0,0,0.0762141,-13.0008,-0.762724)">
            <path d="M1339.9,2517.9C1501.85,2730.37 1664,2893.43 1826.38,3004.46C1734.24,2939.88 1662.36,2851.87 1652.84,2691.7C1611.93,2776.16 1489.53,2677.59 1339.9,2517.9Z" style="fill:rgb(122,150,201);stroke:black;strokeWidth:0.6px;"/>
        </g>
        <g transform="matrix(0.0762141,0,0,0.0762141,-13.0008,-0.762724)">
            <path d="M2301.26,3102.28C2265.56,2948.29 2247.06,2910.05 2305.27,2864.99L2665.16,3038.27C2665.16,3038.27 2615.37,3034.72 2612.15,3047.02C2611.03,3051.32 2564.97,2997.15 2594.53,3004.46C2496.44,3030.47 2492.28,3060.53 2527.99,3092.31C2472.6,3085.73 2438.09,3069.81 2514.28,3004.46L2418.31,2963.85C2348.33,2966.03 2396.25,3070.05 2443.38,3173.4C2399.96,3133.97 2360.97,3076.44 2342.97,2933.44L2291.3,2905.26L2301.26,3102.28Z" style="fill:rgb(122,150,201);stroke:black;strokeWidth:0.6px;"/>
        </g>
        <g transform="matrix(0.0762141,0,0,0.0762141,-13.0008,-0.762724)">
            <path d="M290.694,3612C360.341,3627.59 421.078,3619.62 478.321,3602.41C499.659,3582.78 525.38,3584.14 534.833,3552.13L490.309,3573.33L457.215,3539.25C474.164,3558.71 471.997,3564.96 443.213,3584.42L415.77,3606.04L389.381,3586.93C368.104,3614.98 340.511,3636 322.381,3597.27L290.694,3612Z" style="fill:rgb(102,91,122);stroke:black;strokeWidth:0.6px;"/>
        </g>
        <g transform="matrix(0.0762141,0,0,0.0762141,-13.0008,-0.762724)">
            <path d="M1726.41,3325.56C1681.51,3363.91 1678.13,3410.14 1737.7,3468.32L1751.89,3581.39L1772.45,3581.39L1772.45,3536.3C1732.07,3495.89 1761.86,3413.85 1863.79,3369.41C1783.06,3387.13 1731.04,3378.28 1726.41,3325.56Z" style="fill:rgb(157,157,157);fill-opacity:0.62;"/>
        </g>
        <g transform="matrix(0.0762141,0,0,0.0762141,-13.0008,-0.762724)">
            <path d="M1930.01,3516.81C1946.03,3605.35 2055.71,3617.79 2225.5,3581.39C2243.41,3590.91 2294.13,3548.01 2238.18,3566.24C2192.72,3581.05 2089.81,3581.39 2089.81,3581.39C2082.42,3562.22 2111.14,3548.4 2153.33,3536.58C2091.74,3543.71 2047.76,3553.97 2018.09,3566.75C2000.23,3547.52 2028.45,3529.99 2091.41,3513.77L1930.01,3516.81Z" style="fill:rgb(157,157,157);fill-opacity:0.62;"/>
        </g>
        <g transform="matrix(0.0762141,0,0,0.0762141,-13.0008,-0.762724)">
            <path d="M2711.9,3093.94C2731.92,3123.79 2735.92,3129.89 2766.41,3122.22C2746.15,3159.09 2744.59,3201.56 2787.35,3249.93L2726.74,3258.25C2750.43,3329.67 2771.08,3401.37 2726.74,3478.76C2701.92,3511.77 2624.86,3522.61 2515.68,3519.82L2589.43,3498.28L2665.16,3490.82L2612.15,3453.47L2707.35,3464.16C2756.91,3396.33 2746.29,3359.27 2708.32,3336.2C2711.74,3360.43 2700.65,3379.49 2665.16,3389.87C2687.53,3367.74 2711.38,3334.56 2710.94,3288.36L2726.74,3176.07L2711.9,3093.94Z" style="fill:rgb(101,100,103);fill-opacity:0.98;"/>
        </g>
        <g transform="matrix(0.0762141,0,0,0.0762141,-11.7555,-3.84811)">
            <path d="M618.421,2078.08C1236.54,2062.4 1666.53,1878.76 1784.16,1375.4C1731.94,1953.71 1260.1,2090.81 675.314,2100.1C1461.72,2215.63 1929.6,1633.88 1945.5,1625.15C1760.35,2042.55 1363.54,2210.3 850.123,2240.54C1319.66,2201.78 1741.55,2115.09 1996.98,1861C1758.67,2188.72 1371.22,2257.12 953.884,2273.58C1358.06,2247.6 1743.37,2198.07 2096.19,2107.99C1787.82,2230.82 1448.8,2297.94 1086.66,2323.05C1496.4,2317.14 1858.7,2270.5 2154.96,2167.16C1918.85,2290.3 1619.39,2364.05 1238.36,2374.2L2304.26,2336.88C1999.09,2390.85 1714.5,2422.68 1409.82,2413.42L2391.3,2478.86C2150.66,2498.84 1880.6,2501.56 1546.43,2466.64L2324.81,2595.51C1963.59,2605.9 1584.55,2541.69 1922.42,2618.34L2271.45,2780.77C1925.5,2678.58 1614,2482.06 1318.45,2434.78C957.283,2376.99 714.8,2223.03 618.421,2078.08Z" style="fill:rgb(110,90,10);fill-opacity:0.33;"/>
        </g>
        <g transform="matrix(0.0762141,0,0,0.0762141,-13.0008,-0.762724)">
            <path d="M2010.9,2884.68C2052.44,2803.6 2049.43,2735.7 1991.31,2684.1C2110.82,2729.8 2173.59,2798.71 2216.77,2875.63L2088.78,2773.65C2050.9,2788.82 2109.14,2848.62 2209.86,2928.15L2077.65,2834.16C2040.21,2856.55 2053.42,2891.06 2161.51,2948.26L2010.9,2884.68Z" style="fill:rgb(189,161,30);"/>
        </g>
        <g transform="matrix(0.0762141,0,0,0.0762141,-13.0008,-0.762724)">
            <path d="M1430.3,587.939C1436.16,592.846 1436.83,598.09 1431.23,603.741L1488.91,595.205C1510.62,601.748 1509.64,619.015 1473.33,652.996L1508.5,643.824L1478.62,670.323L1488.91,688.32C1504.22,689.671 1519.53,679.954 1534.83,650.941C1540.67,623.726 1529.01,611.691 1508.5,607.338L1531.64,606.031C1539.31,585.758 1527.89,573.775 1508.5,565.26C1526.53,553.617 1519.04,532.516 1530.16,517.646C1545.08,497.711 1618.91,515.061 1564.7,450.593L1526.77,441.291C1501.98,479.623 1478.17,493.088 1455.23,484.698C1450.07,506.427 1434.51,521.415 1413.76,533.043C1484.96,520.61 1477,582.776 1430.3,587.939Z" style="fill:rgb(252,234,221);fill-opacity:0.52;"/>
        </g>
        <g transform="matrix(0.0762141,0,0,0.0762141,-13.0008,-0.762724)">
            <path d="M1679.1,859.434L1679.1,827.146C1802.1,806.211 1897.35,757.669 1971.8,688.442L1971.8,738.43L2061.7,661.722C2136.79,643.853 2189.21,756.64 2233.21,927C2246.77,979.517 2298.29,1031.24 2316.77,1083.56L2431.39,1233.86L2449.06,1316.15C2379.98,1237.12 2302.51,1189.79 2216.77,1173.78C2199.53,1082.2 2175.6,992.502 2065.82,927L2072.88,825.518C2040.87,880.727 2007.25,920.42 1971.8,942.564C1912.94,912.139 1858.47,921.823 1805.58,946.029C1763.57,898.75 1721.36,876.122 1679.1,859.434Z" style="fill:rgb(237,199,179);"/>
        </g>
        <g transform="matrix(0.0762141,0,0,0.0762141,-13.0008,-0.762724)">
            <path d="M1647.31,500.8C1649.89,518.796 1662.61,522.548 1679.1,521.013C1696.95,513.705 1706.05,499.305 1704.71,476.434C1690.45,480.184 1683.21,491.397 1679.1,505.932C1658.73,509.995 1653.83,493.735 1656.6,481.714L1646.43,484.796L1647.31,500.8Z" style="fill:rgb(243,206,185);"/>
        </g>
        <g transform="matrix(0.0762141,0,0,0.0762141,-13.0008,-0.762724)">
            <path d="M1755.73,3295.82C1831.48,3216.24 1866.88,3125.04 1910.23,3027.72C1925.64,2993.12 1958.76,2957.74 1971.8,2921.84L2020.77,2997.02C1971.2,2978.08 1947.76,2998.98 1946.5,3053.68C1924.02,3069.71 1917.43,3103.5 1946.5,3177.15L1910.23,3122.9C1875.56,3151.02 1866.86,3179.14 1910.23,3207.25L1857.73,3213.75L1829.59,3261.83L1874.16,3295.82C1832.54,3351.86 1793.18,3348.65 1755.73,3295.82Z" style="fill:rgb(250,225,209);"/>
        </g>
        <g transform="matrix(0.0762141,0,0,0.0762141,-13.0008,-0.762724)">
            <path d="M1079.68,187.718C1033.33,223.386 1013.19,277.261 999.767,335.806C1015.69,282.12 1037.55,233.675 1089.62,211.938C1055.56,236.962 1039.3,272.102 1035.34,314.24C1055.97,252.667 1077.2,212.814 1100.23,237.784L1079.68,187.718Z" style="fill:rgb(121,77,76);"/>
        </g>
        <g transform="matrix(0.0762141,0,0,0.0762141,-13.0008,-0.762724)">
            <path d="M979.872,462.384C945.228,500.193 952.994,589.429 985.202,673.215C962.618,562.88 947.137,470.834 985.105,516.404C973.275,554.96 992.122,633.649 1023.4,728.598C991.059,578.697 977.314,492.708 1018.63,596L1050,792.667C1046.07,737.279 1042.68,683.486 1050,661.259C1079.32,720.962 1096.29,784.956 1081.38,860.025L1100.23,785.123C1033.2,585.962 1005.54,524.33 979.872,462.384Z" style="fill:rgb(121,77,76);"/>
        </g>
        <g transform="matrix(0.0762141,0,0,0.0762141,-13.0008,-0.762724)">
            <path d="M1024.89,410.565C1014.66,402.518 1011.14,416.138 1012.84,446.626C1015.91,500.277 1020.31,503.975 1024.89,500.538L1024.89,410.565Z" style="fill:rgb(176,132,111);"/>
        </g>
        <g transform="matrix(0.0762141,0,0,0.0762141,-13.0008,-0.762724)">
            <path d="M1035.01,392.88C1020.94,387.079 1020.4,411.283 1024.89,446.626C1014.46,421.205 1012.56,401.152 1018.66,386.132L1007.91,422.372L1012.43,347.417L1035.01,392.88Z" style="fill:rgb(52,19,19);"/>
        </g>
        <g transform="matrix(0.0762141,0,0,0.0762141,-13.0008,-0.762724)">
            <path d="M1363.8,531.566L1290.32,692.824L1286.37,748.865C1281.52,738.12 1321.93,616.988 1327.68,647.893C1331,665.758 1335.08,714.768 1335.08,714.768L1337.85,620.598C1348.62,596.796 1355.84,644.859 1361.98,714.768C1365.73,649.062 1361.36,603.332 1349.61,575.79C1365.71,584.477 1381.82,627.46 1397.92,681.014L1370.09,579.441" style="fill:rgb(121,77,76);"/>
        </g>
        <g transform="matrix(0.0762141,0,0,0.0762141,-14.5393,0.89488)">
            <path d="M1367.75,335.806C1341.98,288.894 1346.53,241.982 1397.92,195.069" style="fill:none;stroke:black;strokeWidth:1px;"/>
        </g>
        <g transform="matrix(0.0762141,0,0,0.0762141,-11.0705,0.0993265)">
            <path d="M1367.75,335.806C1341.98,288.894 1346.53,241.982 1397.92,195.069" style="fill:none;stroke:black;strokeWidth:1px;"/>
        </g>
        <g transform="matrix(0.0762141,0,0,0.0762141,-8.1515,-7.6289)">
            <path d="M1376.1,285.16C1350.33,238.248 1346.53,241.982 1397.92,195.069" style="fill:none;stroke:black;strokeWidth:1px;"/>
        </g>
        <g transform="matrix(0.0762141,0,0,0.0762141,-5.8156,-7.6289)">
            <path d="M1376.1,285.16C1350.33,238.248 1346.53,241.982 1397.92,195.069" style="fill:none;stroke:black;strokeWidth:1px;"/>
        </g>
        <g transform="matrix(0.0762141,0,0,0.0762141,-7.60179,0.0993265)">
            <path d="M1367.75,335.806C1341.98,288.894 1346.53,241.982 1397.92,195.069" style="fill:none;stroke:black;strokeWidth:1px;"/>
        </g>
        <g transform="matrix(0.0762141,0,0,0.0762141,-4.57316,0.0993265)">
            <path d="M1367.75,335.806C1341.98,288.894 1346.53,241.982 1397.92,195.069" style="fill:none;stroke:black;strokeWidth:1px;"/>
        </g>
        <g transform="matrix(0.0762141,0,0,0.0762141,0.315598,-7.42417)">
            <path d="M1372.54,288.458C1346.77,241.546 1288.38,213.517 1397.92,195.069" style="fill:none;stroke:black;strokeWidth:1px;"/>
        </g>
        <g transform="matrix(0.0762141,0,0,0.0762141,4.80949,-7.42417)">
            <path d="M1372.54,288.458C1346.77,241.546 1288.38,213.517 1397.92,195.069" style="fill:none;stroke:black;strokeWidth:1px;"/>
        </g>
        <g transform="matrix(0.0762141,0,0,0.0762141,8.68993,-5.61987)">
            <path d="M1372.54,288.458C1346.77,241.546 1288.38,213.517 1397.92,195.069" style="fill:none;stroke:black;strokeWidth:1px;"/>
        </g>
        <g transform="matrix(0.0459016,0,0,0.0762141,52.6817,-3.3441)">
            <path d="M1372.54,288.458C1346.77,241.546 1288.38,213.517 1397.92,195.069" style="fill:none;stroke:black;strokeWidth:1.21px;"/>
        </g>
        <g transform="matrix(0.0762141,0,0,0.0762141,-1.10442,3.77343)">
            <path d="M1367.75,335.806C1341.98,288.894 1346.53,241.982 1397.92,195.069" style="fill:none;stroke:black;strokeWidth:1px;"/>
        </g>
        <g transform="matrix(0.0762141,0,0,0.0762141,3.88013,6.52282)">
            <path d="M1367.75,335.806C1341.98,288.894 1346.53,241.982 1397.92,195.069" style="fill:none;stroke:black;strokeWidth:1px;"/>
        </g>
        <g transform="matrix(0.0915164,0,0,0.0762141,-13.3462,8.92204)">
            <path d="M1367.75,335.806C1341.98,288.894 1346.53,241.982 1397.92,195.069" style="fill:none;stroke:black;strokeWidth:0.91px;"/>
        </g>
        <g transform="matrix(-0.133337,0,0,0.0762141,297.48,4.60034)">
            <path d="M1367.75,335.806C1341.98,288.894 1346.53,241.982 1397.92,195.069" style="fill:none;stroke:black;strokeWidth:0.7px;"/>
        </g>
        <g transform="matrix(-0.133337,0,0,0.0762141,289.822,-3.34842)">
            <path d="M1375.16,324.589C1349.39,277.677 1323.77,281.893 1375.16,234.98" style="fill:none;stroke:black;strokeWidth:0.7px;"/>
        </g>
        <g transform="matrix(-0.132892,0,0,0.0762141,304.028,11.8859)">
            <path d="M1367.75,335.806C1341.98,288.894 1346.53,241.982 1397.92,195.069" style="fill:none;stroke:black;strokeWidth:0.7px;"/>
        </g>
        <g transform="matrix(-0.132892,0,0,0.0762141,301.004,0.427436)">
            <path d="M1367.75,335.806C1341.98,288.894 1346.53,241.982 1397.92,195.069" style="fill:none;stroke:black;strokeWidth:0.7px;"/>
        </g>
        <g transform="matrix(-0.132892,0,0,0.0762141,299.844,-7.45369)">
            <path d="M1359.92,288.845C1334.15,241.933 1346.53,241.982 1397.92,195.069" style="fill:none;stroke:black;strokeWidth:0.7px;"/>
        </g>
        <g transform="matrix(-0.132892,0,0,0.0762141,308.132,6.52282)">
            <path d="M1367.75,335.806C1341.98,288.894 1346.53,241.982 1397.92,195.069" style="fill:none;stroke:black;strokeWidth:0.7px;"/>
        </g>
        <g transform="matrix(-0.132892,0,0,0.0762141,310.076,2.38141)">
            <path d="M1367.75,335.806C1341.98,288.894 1346.53,241.982 1397.92,195.069" style="fill:none;stroke:black;strokeWidth:0.7px;"/>
        </g>
        <g transform="matrix(0.0762141,0,0,0.0762141,-13.0008,-0.762724)">
            <path d="M906.121,1082.86C895.117,1094.42 888.462,1107.12 893.144,1122.79C888.224,1130.38 883.682,1138.34 882.503,1149.6C884.273,1164.7 884.998,1179.66 900.12,1196.51C880.988,1195.77 882.957,1210.35 899.374,1235.42L944.596,1243.38C907.638,1226.15 896.601,1214.02 924.858,1209.61C909.256,1196.23 906.153,1182.86 924.234,1169.48C887.867,1162.31 898.124,1126.24 917.597,1121.78C877.743,1105.31 932.573,1066.26 959.577,1055.38L906.121,1082.86Z" style="fill:rgb(237,198,179);fill-opacity:0.91;"/>
        </g>
    </g>
</svg>
