<?xml version="1.0" encoding="UTF-8" standalone="no"?>
<!DOCTYPE svg PUBLIC "-//W3C//DTD SVG 1.1//EN" "http://www.w3.org/Graphics/SVG/1.1/DTD/svg11.dtd">
<svg width="100%" height="100%" viewBox="0 0 58 58" version="1.1" xmlns="http://www.w3.org/2000/svg" xmlns:xlink="http://www.w3.org/1999/xlink" xml:space="preserve" xmlns:serif="http://www.serif.com/" style="fill-rule:evenodd;clip-rule:evenodd;stroke-linejoin:round;stroke-miterlimit:2;">
    <g transform="matrix(0.32,0,0,0.32,-67.4639,-37.8393)">
        <g transform="matrix(0.994935,0,0,0.994935,8.89305,0.323035)">
            <path d="M383.876,134.578C383.876,125.718 376.683,118.525 367.823,118.525L219.013,118.525C210.153,118.525 202.96,125.718 202.96,134.578L202.96,283.388C202.96,292.248 210.153,299.441 219.013,299.441L367.823,299.441C376.683,299.441 383.876,292.248 383.876,283.388L383.876,134.578Z" style="fill:rgb(152,0,85);"/>
        </g>
        <g transform="matrix(0.132043,0,0,0.132043,157.933,106.657)">
            <path d="M588.308,1171.54C568.41,1192.17 560.26,1199.14 535.68,1209.84C529.634,1264.25 564.125,1389.18 564.125,1389.18C564.125,1389.18 663.63,1397.05 672.035,1384.51C680.439,1371.98 608.32,1369.81 597.744,1339.05C586.952,1307.66 590.077,1271.81 590.077,1271.81C590.077,1271.81 620.777,1231.46 637.851,1218.14C657.616,1202.72 606.508,1152.68 588.308,1171.54Z" style="fill:rgb(241,209,198);fill-rule:nonzero;"/>
        </g>
        <g transform="matrix(0.132043,0,0,0.132043,157.933,106.657)">
            <path d="M578.095,1212.76C568.41,1181.16 532.162,1190.03 516.66,1217.58C504.969,1238.36 507.825,1258.49 509.912,1259.37C545.846,1294.24 549.76,1398.84 549.76,1398.84C549.76,1398.84 661.916,1396.21 669.233,1389.18C690.296,1368.95 585.694,1379.98 585.694,1379.98L626.965,1357.57L602.456,1341.91L572.53,1352.94L558.299,1260.79C558.299,1260.79 584.005,1232.05 578.095,1212.76Z" style="fill:rgb(4,3,2);fill-rule:nonzero;"/>
        </g>
        <g transform="matrix(0.132043,0,0,0.132043,157.933,106.657)">
            <path d="M518.481,1252.33C501.403,1273.24 483.447,1304.81 474.24,1335.83C478.252,1349.74 487.469,1340.57 487.469,1340.57C487.469,1340.57 486.383,1344.08 497.505,1313.23C503.716,1296 513.261,1276.34 521.854,1270.03C545.136,1252.91 535.558,1231.43 518.481,1252.33Z" style="fill-rule:nonzero;"/>
        </g>
        <g transform="matrix(0.132043,0,0,0.132043,157.933,106.657)">
            <path d="M1239.94,1227.74C1239.94,1227.74 1252.79,1230.32 1263.6,1272.87C1285.62,1286.97 1328.02,1284.15 1328.02,1284.15L1366.23,1335.83C1366.23,1335.83 1411.52,1321.83 1420.73,1310.07C1369.81,1296.07 1368.59,1273.26 1331.66,1246.3C1299.99,1223.19 1317.55,1228.74 1297.45,1212.45C1277.34,1196.17 1251.23,1181.16 1251.23,1181.16L1239.94,1227.74Z" style="fill:rgb(241,209,198);fill-rule:nonzero;"/>
        </g>
        <g transform="matrix(0.132043,0,0,0.132043,157.933,106.657)">
            <path d="M1255.49,1248.97C1229.48,1279.48 1277.32,1298.77 1277.32,1298.77C1277.32,1298.77 1299.21,1293.14 1319.51,1303.44C1321.25,1343.44 1358.53,1339.99 1358.53,1339.99C1358.53,1339.99 1397.78,1346.12 1423.05,1318.64C1434.45,1306.25 1408.82,1305.64 1408.82,1305.64L1369.57,1324.29C1369.57,1324.29 1348.72,1309.81 1335.71,1268.11C1330.41,1251.11 1347.49,1256.57 1347.49,1256.57L1337.68,1249.46L1321.24,1260.25C1321.24,1260.25 1264.96,1237.85 1255.49,1248.97Z" style="fill-rule:nonzero;"/>
        </g>
        <g transform="matrix(0.132043,0,0,0.132043,157.933,106.657)">
            <path d="M1262.91,1284.9C1267.03,1302.11 1294.72,1348.99 1294.72,1348.99C1294.72,1348.99 1313.94,1346.51 1305.66,1340.57C1269.47,1314.62 1279.3,1297.01 1279.3,1297.01C1279.3,1297.01 1258.78,1267.69 1262.91,1284.9Z" style="fill-rule:nonzero;"/>
        </g>
        <g transform="matrix(0.132043,0,0,0.132043,157.933,106.657)">
            <path d="M925.366,328.99C940.166,337.667 967.082,372.318 984.353,353.15C987.587,305.464 987.507,199.942 987.507,199.942L929.089,227.328L924.142,328.218" style="fill:rgb(241,209,198);fill-rule:nonzero;"/>
        </g>
        <g transform="matrix(0.132043,0,0,0.132043,157.933,106.657)">
            <path d="M889.576,396.892L850.017,481.567C850.017,481.567 836.125,520.928 832.348,513.875C828.57,506.823 834.907,453.357 834.907,453.357C834.907,453.357 803.723,525.732 798.786,524.945C793.849,524.159 819.563,442.894 815.159,450.211C810.755,457.528 778.536,510.778 773.449,508.058C768.361,505.337 794.809,439.329 794.809,439.329L746.911,503.147C746.911,503.147 769.971,452.013 786.397,413.375C802.824,374.738 789.099,407.014 812.617,348.596C836.135,290.177 835.827,221.123 880.469,179.702C925.112,138.281 1005.29,189.08 1005.29,189.08C1005.29,189.08 934.013,298.422 947.908,378.529C955.824,403.739 963.871,429.278 955.824,432.494C937.543,439.803 889.576,396.892 889.576,396.892Z" style="fill-rule:nonzero;"/>
        </g>
        <g transform="matrix(0.132043,0,0,0.132043,157.933,106.657)">
            <path d="M1596.5,1223.23L1630.2,1225.48L1638.29,1171.56L1605.03,1146.84L1596.5,1223.23Z" style="fill:white;fill-rule:nonzero;"/>
        </g>
        <g transform="matrix(0.132043,0,0,0.132043,157.933,106.657)">
            <path d="M1501.44,1299.6C1501.44,1299.6 1480.57,1313 1503.32,1321.98C1526.07,1330.96 1548.36,1337.32 1592.45,1335.52C1636.36,1333.73 1652.32,1238.93 1652.32,1238.93L1675.47,1251.7L1694.4,1197.39C1694.4,1197.39 1657.48,1189.8 1658.45,1165.69C1660.32,1119.42 1596.3,1129.79 1596.3,1129.79C1596.3,1129.79 1620.63,1166.84 1620.15,1192.7C1619.67,1218.55 1594.39,1233.21 1594.39,1233.21C1594.39,1233.21 1608.01,1238.55 1604.01,1247.84C1594.7,1269.52 1501.44,1299.6 1501.44,1299.6Z" style="fill-rule:nonzero;"/>
        </g>
        <g transform="matrix(0.132043,0,0,0.132043,157.933,106.657)">
            <path d="M1090.22,792.521C1090.22,792.521 1088.91,1099.67 1218.02,1207.97C1420.73,1245.87 1380.56,1214.09 1519.06,1258.49C1629.86,1294.01 1619.92,1139.77 1619.92,1139.77C1619.92,1139.77 1537.2,1066.55 1260.78,1027.94C1307.73,933.122 1291.16,832.17 1291.16,832.17L1090.22,792.521Z" style="fill:rgb(52,63,116);fill-rule:nonzero;"/>
        </g>
        <g transform="matrix(0.132043,0,0,0.132043,157.933,106.657)">
            <path d="M1062.97,339.84C1062.97,339.84 1027.23,350.02 1000.07,394.539C967.495,447.943 896.909,527.014 896.909,527.014C896.909,527.014 842.727,537.745 819.506,560.79C796.285,583.835 794.878,658.951 816.691,667.747C838.505,676.543 891.279,654.377 891.279,654.377L981.348,518.57L1064.97,353.15L1062.97,339.84Z" style="fill:rgb(108,123,188);fill-rule:nonzero;"/>
        </g>
        <g transform="matrix(0.132043,0,0,0.132043,157.933,106.657)">
            <path d="M805.374,1377.42C805.374,1377.42 894.042,1390.01 935.893,1384.51C955.824,1369.39 972.779,1355.43 972.779,1355.43L983.419,1385.93L1027.4,1389.48C1027.4,1389.48 1013.94,1370.56 1030.24,1362.52C1074.76,1340.57 1050.81,1320.67 1050.81,1320.67L1011.08,1310.03C1011.08,1310.03 973.583,1280.7 924.142,1314.24C874.282,1348.05 831.32,1338.52 801.173,1348.99C771.026,1359.45 805.374,1377.42 805.374,1377.42Z" style="fill-rule:nonzero;"/>
        </g>
        <g transform="matrix(0.132043,0,0,0.132043,157.933,106.657)">
            <path d="M914.963,918.756C1001.24,1168.12 1102.49,1219.78 1215.83,1242.09C1269.71,1252.69 1279.17,1207.77 1281.3,1200.35C1230.33,1089.42 1017.58,791.747 1017.58,791.747C1017.58,791.747 875.954,806.014 914.963,918.756Z" style="fill:rgb(255,147,173);fill-rule:nonzero;"/>
        </g>
        <g transform="matrix(0.132043,0,0,0.132043,157.933,106.657)">
            <path d="M1157.49,313.045L1058.98,439.53L1063.42,797.373C1063.42,797.373 1091.63,831.373 1080.51,841.066C1069.38,850.759 1037.98,841.696 1041.01,823.863C1031.96,793.396 1021.75,687.731 1021.75,687.731L1013.85,606.693L1016.39,482.115L1032.67,356.91C1032.67,356.91 1053.76,343.466 1064.56,335.362C1075.37,327.258 1142.75,309.705 1142.75,309.705" style="fill:white;fill-rule:nonzero;"/>
        </g>
        <g transform="matrix(0.132043,0,0,0.132043,157.933,106.657)">
            <path d="M1065.05,802.035C987.507,848.088 955.824,886.654 875.747,969.187C820.567,1080.52 867,1124.52 876.102,1210.79C885.204,1297.05 897.07,1259 912.155,1314.24C961.733,1315.34 1005.29,1335.83 1005.29,1335.83C1005.29,1335.83 1058.81,1355.66 1064.97,1314.24C1066.46,1304.24 1010.13,1264.4 1013.13,1250.17C1028.61,1176.94 1032.18,969.901 1174.81,974.702C1316.59,979.474 1295.57,817.863 1295.57,817.863C1295.57,817.863 1165.09,768.414 1065.05,802.035Z" style="fill:rgb(52,63,116);fill-rule:nonzero;"/>
        </g>
        <g transform="matrix(0.132043,0,0,0.132043,157.933,106.657)">
            <path d="M1044.3,412.212C1035.49,436.376 1164.69,322.138 1164.69,322.138L1004.75,167.973C1004.75,167.973 1009.7,162.29 987.507,187.027C1009.7,213.298 984.833,295.289 984.833,295.289L999.845,292.691C999.845,292.691 1005.29,341.56 1008.79,352.74C1044.94,344.198 1068.7,313.846 1064.97,330.756C1062.83,340.464 1057.65,346.491 1055.67,356.109C1049.61,385.394 1044.78,410.909 1044.3,412.212Z" style="fill:rgb(231,193,182);fill-rule:nonzero;"/>
        </g>
        <g transform="matrix(0.132043,0,0,0.132043,157.933,106.657)">
            <path d="M1054.88,806.977C1024,660.559 1031.47,556.493 1039.55,444.339C1047.64,332.185 1111.75,401.095 1140.88,309.705C1214.19,325.169 1254.36,433.926 1330.34,448.891C1386.52,459.957 1409.85,486.051 1409.85,486.051C1409.85,486.051 1474.12,620.763 1433.69,629.914C1393.25,639.065 1248.11,522.655 1248.11,522.655C1248.11,522.655 1186.61,575.008 1201.29,652.898C1285.04,728.66 1306.85,834.217 1306.85,834.217C1306.85,834.217 1082.48,921.885 1054.88,806.977Z" style="fill:rgb(108,123,188);fill-rule:nonzero;"/>
        </g>
        <g transform="matrix(0.132043,0,0,0.132043,157.933,106.657)">
            <path d="M888.415,536.652C922.548,602.074 908.878,691.642 877.037,708.267C877.037,708.267 793.254,716.187 834.972,897.283C830.231,990.202 754.726,1090.37 754.726,1090.37C754.726,1090.37 637.156,1097.01 568.889,1157.69C562.252,1185.19 626.726,1242.07 626.726,1242.07C626.726,1242.07 735.416,1263.52 834.972,1223.69C980.987,1115.61 1024,817.863 1024,817.863L1010.73,603.97C1010.73,603.97 1077.1,559.407 1024.95,516.741C1002.09,498.036 965.215,494.933 965.215,494.933C965.215,494.933 910.459,483.319 888.415,536.652Z" style="fill:rgb(255,147,173);fill-rule:nonzero;"/>
        </g>
        <g transform="matrix(0.132043,0,0,0.132043,157.933,106.657)">
            <path d="M1142.59,306.202L1120.4,391.857L1054.99,384.244L1142.59,306.202Z" style="fill:white;fill-rule:nonzero;"/>
        </g>
        <g transform="matrix(0.132043,0,0,0.132043,157.933,106.657)">
            <path d="M890.141,531.693C859.912,493.864 806.673,430.834 853.433,408.086C883.167,385.021 893.769,387.374 908.878,388.637C968.731,393.636 1024,446.043 1082.41,480.074C1154.61,449.841 1280.81,393.284 1280.81,393.284L1311.06,353.15L1345.47,387.997L1308.86,414.278C1308.86,414.278 1231.18,472.84 1169.89,501.627C1108.59,530.414 1063.67,529.427 1063.67,529.427L965.326,493.864C965.326,493.864 932.49,575.545 890.141,531.693Z" style="fill:rgb(241,209,198);fill-rule:nonzero;"/>
        </g>
        <g transform="matrix(0.132043,0,0,0.132043,157.933,106.657)">
            <path d="M1281.53,382.284C1289.69,402.492 1322.91,395.67 1330.34,419.505C1337.76,443.34 1336.26,498.399 1345.47,524.952C1377.16,616.365 1420.73,544.631 1420.73,544.631C1420.73,544.631 1405.58,485.841 1389.84,448.891C1374.11,411.941 1371.87,420.641 1357.78,396.831C1343.68,373.021 1346.55,369.583 1332.92,353.198C1319.3,336.813 1314.07,334.504 1303.28,331.292C1292.49,328.08 1289.76,340.35 1289.76,340.35C1289.76,340.35 1273.38,362.076 1281.53,382.284Z" style="fill:rgb(234,189,173);fill-rule:nonzero;"/>
        </g>
        <g transform="matrix(0.132043,0,0,0.132043,157.933,106.657)">
            <path d="M1296.67,330.756C1284.48,335.215 1311.51,344.657 1316.23,358.845C1320.95,373.032 1330.34,378.767 1330.34,378.767C1330.34,378.767 1340.36,391.481 1346.49,380.653C1352.62,369.826 1367.64,343.23 1355.18,330.756C1342.73,318.282 1308.86,326.298 1296.67,330.756Z" style="fill:rgb(236,207,199);fill-rule:nonzero;"/>
        </g>
        <g transform="matrix(0.132043,0,0,0.132043,157.933,106.657)">
            <path d="M982.422,196.986C1044.94,219.256 1090.68,340.501 1090.68,340.501C1090.68,340.501 1214.07,318.514 1192.75,279.393C1164.69,227.916 1142.59,184.614 1064.97,145.024C1005.29,119.661 987.507,167.409 982.422,196.986Z" style="fill-rule:nonzero;"/>
        </g>
        <g transform="matrix(0.132043,0,0,0.132043,157.933,106.657)">
            <path d="M845.882,580.519C814.875,611.759 858.877,630.669 858.877,630.669C858.877,630.669 891.399,612.155 924.142,621.426C949.914,619.862 1000.07,571.866 987.507,565.979C983.149,563.937 943.42,604.078 944.718,600.628C946.016,597.178 997.255,552.384 987.507,544.631C982.292,540.484 937.231,587.493 939.075,584.225C940.919,580.956 994.824,533.925 984.833,524.952C978.225,519.018 928.427,571.621 933.074,565.979C937.721,560.337 969.738,531.26 961.299,524.952C955.007,520.248 933.074,560.423 897.029,568.301C889.329,569.984 891.284,536.605 891.284,536.605C891.284,536.605 876.102,504.825 866.25,516.313C863.189,519.882 872.381,526.691 872.831,540.252C873.281,553.813 860.472,579.321 845.882,580.519Z" style="fill:rgb(231,193,182);fill-rule:nonzero;"/>
        </g>
    </g>
</svg>
