<?xml version="1.0" encoding="UTF-8" standalone="no"?>
<!DOCTYPE svg PUBLIC "-//W3C//DTD SVG 1.1//EN" "http://www.w3.org/Graphics/SVG/1.1/DTD/svg11.dtd">
<svg width="100%" height="100%" viewBox="0 0 128 16" version="1.1" xmlns="http://www.w3.org/2000/svg" xmlns:xlink="http://www.w3.org/1999/xlink" xml:space="preserve" xmlns:serif="http://www.serif.com/" style="fill-rule:evenodd;clip-rule:evenodd;stroke-linejoin:round;stroke-miterlimit:2;">
    <g transform="matrix(0.32,0,0,0.32,-88.3917,-116.362)">
        <g transform="matrix(8.29132,0,0,2.48698,-2014.04,-540.713)">
            <path d="M324.467,366.637C324.467,364.978 324.063,363.632 323.566,363.632L277.125,363.632C276.628,363.632 276.224,364.978 276.224,366.637L276.224,380.731C276.224,382.39 276.628,383.736 277.125,383.736L323.566,383.736C324.063,383.736 324.467,382.39 324.467,380.731L324.467,366.637Z" fill="#980055"/>
        </g>
        <g transform="matrix(1,0,0,1,83.7414,102.917)">
            <path d="M205.581,269.445L214.886,269.445C218.226,269.445 220.808,270.266 222.632,271.908C224.457,273.55 225.369,275.859 225.369,278.834C225.369,282.09 224.19,284.812 221.833,287.001C219.503,289.191 216.612,290.285 213.16,290.285L206.171,290.285L204.403,299.969L199.982,299.969L205.581,269.445ZM206.929,286.159L213.539,286.159C215.588,286.159 217.314,285.5 218.717,284.181C220.12,282.833 220.822,281.149 220.822,279.128C220.822,275.395 218.843,273.529 214.886,273.529L209.244,273.529L206.929,286.159Z" fill="white"/>
        </g>
        <g transform="matrix(1,0,0,1,83.7414,102.917)">
            <path d="M249.703,299.969L245.072,299.969L243.599,292.643L229.537,292.643L225.411,299.969L220.275,299.969L237.957,269.445L243.136,269.445L249.703,299.969ZM239.515,274.918L231.768,288.643L242.799,288.643L240.062,274.918L240.02,273.655L239.515,274.918Z" fill="white"/>
        </g>
        <g transform="matrix(1,0,0,1,83.7414,102.917)">
            <path d="M279.427,278.413C279.427,280.995 278.613,283.24 276.985,285.149C275.385,287.058 273.308,288.321 270.754,288.938L276.185,299.969L271.091,299.969L266.418,289.359L260.018,289.359L258.082,299.969L253.661,299.969L259.26,269.445L268.944,269.445C272.284,269.445 274.866,270.224 276.69,271.782C278.515,273.34 279.427,275.55 279.427,278.413ZM260.776,285.191L267.807,285.191C269.884,285.191 271.582,284.574 272.901,283.339C274.22,282.104 274.88,280.532 274.88,278.623C274.88,275.227 272.901,273.529 268.944,273.529L262.923,273.529L260.776,285.191Z" fill="white"/>
        </g>
        <g transform="matrix(1,0,0,1,83.7414,102.917)">
            <path d="M284.984,299.969L280.479,299.969L286.079,269.445L290.584,269.445L284.984,299.969Z" fill="white"/>
        </g>
        <g transform="matrix(1,0,0,1,83.7414,102.917)">
            <path d="M301.109,300.39C299.621,300.39 298.267,300.137 297.046,299.632C295.825,299.127 294.878,298.481 294.204,297.695C292.941,296.123 292.184,294.72 291.931,293.485L291.763,292.727L296.099,291.675C296.099,292.039 296.253,292.601 296.562,293.359C297.404,295.492 299.018,296.558 301.404,296.558C303.004,296.558 304.421,296.067 305.656,295.085C306.863,294.074 307.466,292.839 307.466,291.38C307.466,290.061 307.2,289.099 306.666,288.496C306.133,287.893 305.165,287.366 303.761,286.917L300.351,285.823C296.646,284.588 294.794,282.146 294.794,278.497C294.794,275.802 295.776,273.557 297.741,271.761C299.734,269.936 302.162,269.024 305.024,269.024C307.859,269.024 309.95,269.796 311.297,271.34C312.532,272.603 313.248,273.782 313.445,274.876L313.613,275.55L309.487,276.813C309.487,276.476 309.333,276.013 309.024,275.424C308.238,273.683 306.835,272.813 304.814,272.813C303.298,272.813 301.979,273.304 300.856,274.287C299.762,275.241 299.214,276.49 299.214,278.034C299.214,279.213 299.474,280.09 299.993,280.665C300.513,281.241 301.516,281.781 303.004,282.286L306.498,283.423C310.147,284.63 311.971,287.114 311.971,290.875C311.971,293.597 310.933,295.871 308.856,297.695C306.807,299.491 304.224,300.39 301.109,300.39Z" fill="white"/>
        </g>
        <g transform="matrix(1,0,0,1,83.7414,102.917)">
            <path d="M327.801,300.39C323.956,300.39 321.051,299.155 319.086,296.685C317.121,294.243 316.504,291.043 317.234,287.086L320.518,269.445L324.896,269.445L321.654,287.212C321.121,290.103 321.409,292.327 322.517,293.885C323.626,295.443 325.486,296.222 328.096,296.222C330.538,296.222 332.58,295.436 334.222,293.864C335.864,292.292 336.951,290.103 337.484,287.296L340.726,269.445L345.105,269.445L341.863,287.254C341.077,291.436 339.456,294.671 337,296.958C334.544,299.246 331.478,300.39 327.801,300.39Z" fill="white"/>
        </g>
        <g transform="matrix(1,0,0,1,83.7414,102.917)">
            <path d="M369.987,282.539L372.386,269.445L376.807,269.445L371.207,299.969L366.787,299.969L369.229,286.665L353.735,286.665L351.294,299.969L346.873,299.969L352.472,269.445L356.893,269.445L354.493,282.539L369.987,282.539Z" fill="white"/>
        </g>
        <g transform="matrix(1,0,0,1,83.7414,102.917)">
            <path d="M384.722,269.445L394.195,269.445C398.405,269.445 401.787,270.68 404.341,273.15C406.895,275.592 408.172,278.848 408.172,282.918C408.172,287.801 406.488,291.871 403.12,295.127C399.808,298.355 395.612,299.969 390.532,299.969L379.122,299.969L384.722,269.445ZM384.301,295.758L390.995,295.758C394.644,295.758 397.661,294.58 400.047,292.222C402.432,289.864 403.625,286.847 403.625,283.17C403.625,280.111 402.797,277.746 401.141,276.076C399.485,274.406 397.142,273.571 394.11,273.571L388.385,273.571L384.301,295.758Z" fill="white"/>
        </g>
        <g transform="matrix(1,0,0,1,83.7414,102.917)">
            <path d="M436.338,269.445L435.58,273.403L420.634,273.403L418.95,282.623L433.138,282.623L432.338,286.538L418.234,286.538L416.466,295.969L431.707,295.969L430.907,299.969L411.33,299.969L416.929,269.445L436.338,269.445Z" fill="white"/>
        </g>
        <g transform="matrix(1,0,0,1,323.347,102.917)">
            <path d="M202.424,269.445L224.485,269.445L224.274,270.582L213.833,270.582L208.444,299.969L207.266,299.969L212.654,270.582L202.213,270.582L202.424,269.445Z" fill="white"/>
        </g>
        <g transform="matrix(1,0,0,1,323.347,102.917)">
            <path d="M243.009,299.969L241.788,299.969L239.557,290.706L222.548,290.706L216.907,299.969L215.517,299.969L234.168,269.445L235.557,269.445L243.009,299.969ZM234.294,271.382L223.222,289.612L239.262,289.612L234.842,271.34L234.715,270.498L234.294,271.382Z" fill="white"/>
        </g>
        <g transform="matrix(1,0,0,1,323.347,102.917)">
            <path d="M249.409,299.969L248.23,299.969L253.829,269.445L254.882,269.445L270.291,298.074L275.511,269.445L276.69,269.445L271.091,299.969L270.038,299.969L254.629,271.34L249.409,299.969Z" fill="white"/>
        </g>
        <g transform="matrix(1,0,0,1,323.347,102.917)">
            <path d="M295.846,285.107L296.015,284.054L309.74,284.054L306.877,299.969L305.909,299.969L307.466,290.959C306.119,293.934 304.316,296.236 302.056,297.863C299.797,299.491 297.236,300.305 294.373,300.305C290.78,300.305 287.735,299.014 285.237,296.432C282.795,293.85 281.574,290.636 281.574,286.791C281.574,281.767 283.174,277.571 286.374,274.203C289.573,270.806 293.545,269.108 298.288,269.108C300.758,269.108 302.997,269.719 305.003,270.94C307.01,272.161 308.575,273.88 309.698,276.097L308.603,276.602C307.593,274.553 306.182,272.975 304.372,271.866C302.561,270.757 300.506,270.203 298.204,270.203C293.826,270.203 290.163,271.775 287.216,274.918C284.269,278.062 282.795,281.991 282.795,286.707C282.795,290.355 283.904,293.345 286.121,295.674C288.366,298.032 291.145,299.211 294.457,299.211C297.881,299.211 300.856,297.92 303.382,295.337C305.937,292.755 307.607,289.345 308.393,285.107L295.846,285.107Z" fill="white"/>
        </g>
        <g transform="matrix(1,0,0,1,323.347,102.917)">
            <path d="M329.275,300.305C325.486,300.305 322.328,299 319.802,296.39C317.276,293.78 316.013,290.538 316.013,286.665C316.013,281.697 317.613,277.529 320.812,274.161C324.012,270.792 327.984,269.108 332.727,269.108C336.488,269.108 339.632,270.414 342.158,273.024C344.712,275.578 345.989,278.806 345.989,282.707C345.989,287.703 344.389,291.885 341.189,295.253C337.99,298.621 334.018,300.305 329.275,300.305ZM329.317,299.211C333.723,299.211 337.4,297.653 340.347,294.537C343.294,291.366 344.768,287.45 344.768,282.791C344.768,279.171 343.617,276.167 341.316,273.782C339.042,271.396 336.179,270.203 332.727,270.203C328.32,270.203 324.63,271.775 321.654,274.918C318.707,278.034 317.234,281.921 317.234,286.58C317.234,290.229 318.37,293.246 320.644,295.632C322.945,298.018 325.836,299.211 329.317,299.211Z" fill="white"/>
        </g>
    </g>
</svg>
