<?xml version="1.0" encoding="UTF-8" standalone="no"?>
<!DOCTYPE svg PUBLIC "-//W3C//DTD SVG 1.1//EN" "http://www.w3.org/Graphics/SVG/1.1/DTD/svg11.dtd">
<svg width="100%" height="100%" viewBox="0 0 134 123" version="1.1" xmlns="http://www.w3.org/2000/svg" xmlns:xlink="http://www.w3.org/1999/xlink" xml:space="preserve" xmlns:serif="http://www.serif.com/" style="fill-rule:evenodd;clip-rule:evenodd;stroke-linejoin:round;stroke-miterlimit:2;">
    <g transform="matrix(1.33333,0,0,1.33333,-59.4413,-90.1714)">
        <g transform="matrix(0.201881,0,0,0.201881,40.1957,56.3821)">
            <path d="M86.308,289.382L281.036,289.382C291.797,289.382 300.509,280.669 300.509,269.909L300.509,75.181C300.509,64.421 291.797,55.708 281.036,55.708L86.308,55.708C75.548,55.708 66.836,64.421 66.836,75.181L66.836,269.909C66.836,280.669 75.548,289.382 86.308,289.382Z" fill="rgb(21,101,192)"/>
        </g>
        <g transform="matrix(0.255085,0,0,0.255085,25.3493,43.153)">
            <path d="M253.218,456.292L447.946,456.292C458.706,456.292 467.419,447.579 467.419,436.819L467.419,242.091C467.419,231.331 458.706,222.618 447.946,222.618L253.218,222.618C242.458,222.618 233.745,231.331 233.745,242.091L233.745,436.819C233.745,447.579 242.458,456.292 253.218,456.292Z" fill="rgb(198,60,50)"/>
        </g>
        <g transform="matrix(0.236497,0,0,0.236497,34.0377,51.6346)">
            <path d="M200.363,406.219L133.6,356.146L133.6,456.292L200.363,406.219Z" fill="rgb(69,90,100)"/>
        </g>
        <g transform="matrix(0.236497,0,0,0.236497,34.0377,51.6346)">
            <path d="M144.727,422.91L94.654,422.91C67.047,422.91 44.581,400.444 44.581,372.837L44.581,322.764L77.963,322.764L77.963,372.837C77.963,382.039 85.452,389.528 94.654,389.528L144.727,389.528L144.727,422.91Z" fill="rgb(69,90,100)"/>
        </g>
        <g transform="matrix(0.40115,0,0,0.364582,28.1536,39.3041)">
            <path d="M97.502,181.861L97.502,127.875L88.144,127.875L88.144,119.744L97.502,119.744L97.502,113.72C97.502,107.559 98.828,102.841 101.48,99.565C104.131,96.29 108.323,94.652 114.055,94.652C117.915,94.652 121.483,95.101 124.759,95.998L123.121,104.888C121.054,104.537 119.163,104.362 117.447,104.362C113.821,104.362 111.345,105.083 110.019,106.526C108.693,107.968 108.03,111.029 108.03,115.709L108.03,119.744L120.079,119.744L120.079,127.875L108.03,127.875L108.03,181.861L97.502,181.861ZM128.034,108.222L128.034,96.114L138.562,96.114L138.562,108.222L128.034,108.222ZM128.034,181.861L128.034,119.744L138.562,119.744L138.562,181.861L128.034,181.861Z" fill="white"/>
        </g>
        <g transform="matrix(0.618554,0,0,0.618554,-61.5501,-73.388)">
            <path d="M276.631,338.285L283.227,339.283C282.128,344.202 280.139,347.912 277.26,350.415C274.381,352.917 270.815,354.169 266.562,354.169C261.21,354.169 256.877,352.136 253.565,348.071C250.252,344.006 248.595,338.14 248.595,330.473C248.595,322.517 250.266,316.448 253.608,312.268C256.95,308.087 261.181,305.997 266.302,305.997C271.192,305.997 275.271,308.051 278.54,312.159C281.81,316.267 283.444,322.213 283.444,329.996L283.401,332.079L255.192,332.079C255.452,337.258 256.653,341.164 258.794,343.796C260.935,346.429 263.539,347.746 266.606,347.746C271.409,347.746 274.75,344.592 276.631,338.285ZM255.583,325.656L276.674,325.656C276.385,321.663 275.531,318.683 274.114,316.716C272.059,313.852 269.441,312.419 266.259,312.419C263.394,312.419 260.95,313.613 258.924,316C256.899,318.387 255.785,321.605 255.583,325.656Z" fill="white"/>
        </g>
        <g transform="matrix(0.618554,0,0,0.618554,-61.5501,-73.388)">
            <path d="M291.299,353.127L291.299,307.038L297.071,307.038L297.071,313.591C298.46,311.045 300.16,309.143 302.171,307.884C304.181,306.626 306.489,305.997 309.093,305.997C311.118,305.997 312.991,306.394 314.713,307.19C316.434,307.986 317.823,309.027 318.879,310.315C319.935,311.602 320.723,313.273 321.244,315.327C321.765,317.381 322.025,320.535 322.025,324.788L322.025,353.127L315.602,353.127L315.602,325.092C315.602,321.707 315.313,319.233 314.735,317.671C314.156,316.108 313.252,314.9 312.022,314.047C310.792,313.193 309.368,312.767 307.747,312.767C304.681,312.767 302.236,313.909 300.413,316.195C298.59,318.481 297.679,322.401 297.679,327.956L297.679,353.127L291.299,353.127Z" fill="white"/>
        </g>
    </g>
</svg>
